<svg width="24" height="24" viewBox="0 0 24 24" fill="none" xmlns="http://www.w3.org/2000/svg">
<g clip-path="url(#clip0_9_1785)">
<path d="M21.9963 0.738281H1.97919C1.29378 0.738693 0.738144 1.2946 0.738281 1.98029V21.9974C0.738693 22.6828 1.2946 23.2384 1.98029 23.2383H12.7573V14.5371H9.83496V11.1313H12.7573V8.62495C12.7573 5.71838 14.5318 4.13635 17.1245 4.13635C18.3664 4.13635 19.4336 4.22891 19.7446 4.27025V7.30811H17.9567C16.5461 7.30811 16.2729 7.97841 16.2729 8.96223V11.1313H19.6458L19.2063 14.5371H16.2729V23.2383H21.9963C22.6821 23.2384 23.2381 22.6826 23.2383 21.9968C23.2383 21.9967 23.2383 21.9966 23.2383 21.9963V1.97919C23.238 1.29378 22.682 0.738144 21.9963 0.738281Z" fill="#585E77"/>
</g>
<defs>
<clipPath id="clip0_9_1785">
<rect width="24" height="24" fill="white"/>
</clipPath>
</defs>
</svg>
