<svg width="24" height="25" viewBox="0 0 24 25" fill="none" xmlns="http://www.w3.org/2000/svg">
<g clip-path="url(#clip0_9_1797)">
<path d="M23.9765 7.55607C23.9203 6.28085 23.7141 5.40416 23.4187 4.64449C23.1139 3.83812 22.6451 3.11617 22.0308 2.51602C21.4307 1.90652 20.704 1.43292 19.9069 1.13294C19.1429 0.837529 18.2707 0.631312 16.9955 0.575088C15.7108 0.514102 15.3029 0.5 12.0445 0.5C8.78604 0.5 8.37819 0.514102 7.09821 0.570326C5.823 0.626551 4.9463 0.832951 4.18681 1.12817C3.38026 1.43292 2.65832 1.90176 2.05816 2.51602C1.44867 3.11617 0.975249 3.84288 0.675081 4.63991C0.379674 5.40416 0.173457 6.27609 0.117233 7.5513C0.0562466 8.83604 0.0421448 9.2439 0.0421448 12.5023C0.0421448 15.7608 0.0562466 16.1686 0.112471 17.4486C0.168695 18.7238 0.375096 19.6005 0.670502 20.3602C0.975249 21.1666 1.44867 21.8885 2.05816 22.4887C2.65832 23.0982 3.38502 23.5718 4.18205 23.8718C4.9463 24.1672 5.81824 24.3734 7.09363 24.4296C8.37342 24.486 8.78146 24.4999 12.0399 24.4999C15.2984 24.4999 15.7062 24.486 16.9862 24.4296C18.2614 24.3734 19.1381 24.1672 19.8976 23.8718C21.5105 23.2482 22.7857 21.9729 23.4093 20.3602C23.7045 19.596 23.9109 18.7238 23.9672 17.4486C24.0234 16.1686 24.0375 15.7608 24.0375 12.5023C24.0375 9.2439 24.0327 8.83604 23.9765 7.55607ZM21.8153 17.3549C21.7636 18.527 21.5667 19.1599 21.4026 19.5819C20.9994 20.6274 20.1696 21.4572 19.124 21.8605C18.702 22.0246 18.0645 22.2215 16.897 22.2729C15.6311 22.3293 15.2515 22.3433 12.0493 22.3433C8.84703 22.3433 8.46261 22.3293 7.20132 22.2729C6.02922 22.2215 5.39628 22.0246 4.97432 21.8605C4.45402 21.6682 3.98041 21.3634 3.596 20.9649C3.19749 20.5758 2.89274 20.1069 2.70044 19.5866C2.53635 19.1647 2.33947 18.527 2.28801 17.3596C2.2316 16.0937 2.21768 15.7139 2.21768 12.5117C2.21768 9.30946 2.2316 8.92505 2.28801 7.66394C2.33947 6.49183 2.53635 5.8589 2.70044 5.43694C2.89274 4.91645 3.19749 4.44303 3.60076 4.05843C3.98975 3.65992 4.4586 3.35517 4.97908 3.16306C5.40104 2.99896 6.03874 2.80209 7.20608 2.75044C8.47195 2.69422 8.85179 2.68011 12.0538 2.68011C15.2608 2.68011 15.6405 2.69422 16.9018 2.75044C18.0739 2.80209 18.7068 2.99896 19.1288 3.16306C19.6491 3.35517 20.1227 3.65992 20.5071 4.05843C20.9056 4.44761 21.2103 4.91645 21.4026 5.43694C21.5667 5.8589 21.7636 6.49641 21.8153 7.66394C21.8715 8.92981 21.8856 9.30946 21.8856 12.5117C21.8856 15.7139 21.8715 16.089 21.8153 17.3549Z" fill="#585E77"/>
<path d="M12.0445 6.3371C8.64083 6.3371 5.87924 9.0985 5.87924 12.5024C5.87924 15.9062 8.64083 18.6676 12.0445 18.6676C15.4484 18.6676 18.2098 15.9062 18.2098 12.5024C18.2098 9.0985 15.4484 6.3371 12.0445 6.3371ZM12.0445 16.5016C9.83637 16.5016 8.04525 14.7107 8.04525 12.5024C8.04525 10.294 9.83637 8.50311 12.0445 8.50311C14.2528 8.50311 16.0438 10.294 16.0438 12.5024C16.0438 14.7107 14.2528 16.5016 12.0445 16.5016Z" fill="#585E77"/>
<path d="M19.893 6.0933C19.893 6.88813 19.2485 7.53261 18.4535 7.53261C17.6587 7.53261 17.0142 6.88813 17.0142 6.0933C17.0142 5.29828 17.6587 4.65399 18.4535 4.65399C19.2485 4.65399 19.893 5.29828 19.893 6.0933Z" fill="#585E77"/>
</g>
<defs>
<clipPath id="clip0_9_1797">
<rect width="24" height="24" fill="white" transform="translate(0 0.5)"/>
</clipPath>
</defs>
</svg>
