<svg width="24" height="25" viewBox="0 0 24 25" fill="none" xmlns="http://www.w3.org/2000/svg">
<path d="M3.46687 1.71869C1.817 1.71869 0.738281 2.80208 0.738281 4.22604C0.738281 5.61856 1.78487 6.73285 3.40356 6.73285H3.43488C5.11702 6.73285 6.16388 5.61856 6.16388 4.22604C6.13243 2.80208 5.11702 1.71869 3.46687 1.71869Z" fill="#585E77"/>
<path d="M1.02338 8.71411H5.84665V23.2251H1.02338V8.71411Z" fill="#585E77"/>
<path d="M17.6855 8.37354C15.0836 8.37354 13.3388 10.8185 13.3388 10.8185V8.71411H8.51538V23.2251H13.3385V15.1216C13.3385 14.6878 13.37 14.2547 13.4974 13.9444C13.8461 13.0782 14.6396 12.1807 15.9721 12.1807C17.7174 12.1807 18.4154 13.5114 18.4154 15.4622V23.2251H23.2383V14.9048C23.2383 10.4476 20.8587 8.37354 17.6855 8.37354Z" fill="#585E77"/>
</svg>
