<svg width="24" height="24" viewBox="0 0 24 24" fill="none" xmlns="http://www.w3.org/2000/svg">
<g clip-path="url(#clip0_9_1789)">
<path d="M22.442 13.8906C22.4223 13.8549 22.4347 13.9302 22.442 13.8906C22.558 13.2584 22.619 12.6114 22.619 11.9646C22.619 10.5303 22.3383 9.13904 21.7835 7.82905C21.2481 6.56384 20.4824 5.42758 19.5061 4.45199C18.5314 3.47626 17.3943 2.71065 16.1296 2.17548C14.8202 1.62135 13.4288 1.34052 11.9946 1.34052C11.3187 1.34052 10.6417 1.40396 9.98275 1.53058C9.98137 1.53085 9.9778 1.53127 9.9778 1.53127C9.07376 1.05061 8.05725 0.793945 7.0281 0.793945C5.34802 0.793945 3.76845 1.44818 2.58055 2.63649C1.39279 3.82439 0.738281 5.40409 0.738281 7.08404C0.738281 8.15343 1.01349 9.20468 1.52957 10.1334C1.42493 10.7354 1.36958 11.3505 1.36958 11.9646C1.36958 13.3991 1.65042 14.7903 2.20523 16.1004C2.73972 17.3662 3.50574 18.5016 4.48119 19.4773C5.45747 20.4529 6.59291 21.2198 7.85895 21.7536C9.16852 22.3088 10.5604 22.5898 11.9945 22.5898C12.6188 22.5898 13.2445 22.5328 13.8553 22.4244C14.7963 22.9568 15.8617 23.2397 16.9496 23.2397C18.6293 23.2397 20.2082 22.5867 21.3962 21.3979C22.5844 20.2107 23.2383 18.6307 23.2383 16.9507C23.2383 15.8778 22.9617 14.8231 22.442 13.8906ZM12.0369 18.4714C8.26242 18.4714 6.57368 16.6158 6.57368 15.2249C6.57368 14.5118 7.10034 14.0116 7.82613 14.0116C9.44153 14.0116 9.02322 16.331 12.0369 16.331C13.5798 16.331 14.4317 15.4933 14.4317 14.6361C14.4317 14.1204 14.1773 13.5488 13.1614 13.2985L9.80422 12.4604C7.10034 11.7824 6.6098 10.3206 6.6098 8.94664C6.6098 6.0939 9.29582 5.02287 11.8182 5.02287C14.1418 5.02287 16.8808 6.30703 16.8808 8.01843C16.8808 8.75177 16.2458 9.17818 15.5203 9.17818C14.1418 9.17818 14.3953 7.27012 11.6185 7.27012C10.2407 7.27012 9.47737 7.89415 9.47737 8.78693C9.47737 9.67819 10.5657 9.96288 11.5105 10.1781L13.9955 10.7297C16.7175 11.3362 17.4076 12.9253 17.4076 14.4222C17.4079 16.7404 15.6284 18.4714 12.0369 18.4714Z" fill="#585E77"/>
</g>
<defs>
<clipPath id="clip0_9_1789">
<rect width="24" height="24" fill="white"/>
</clipPath>
</defs>
</svg>
