<svg width="24" height="25" viewBox="0 0 24 25" fill="none" xmlns="http://www.w3.org/2000/svg">
<path d="M22.7747 6.87625C22.5154 5.91234 21.7554 5.1525 20.7916 4.89294C19.0309 4.41119 11.988 4.41119 11.988 4.41119C11.988 4.41119 4.94536 4.41119 3.18466 4.87468C2.23943 5.13396 1.46091 5.91248 1.20163 6.87625C0.738281 8.63681 0.738281 12.288 0.738281 12.288C0.738281 12.288 0.738281 15.9576 1.20163 17.6997C1.46118 18.6635 2.22089 19.4233 3.1848 19.6829C4.9639 20.1648 11.9883 20.1648 11.9883 20.1648C11.9883 20.1648 19.0309 20.1648 20.7916 19.7013C21.7555 19.4419 22.5154 18.682 22.7749 17.7182C23.2381 15.9576 23.2381 12.3065 23.2381 12.3065C23.2381 12.3065 23.2567 8.63681 22.7747 6.87625ZM9.7457 15.6611V8.9149L15.6022 12.288L9.7457 15.6611Z" fill="#585E77"/>
</svg>
