<svg width="28" height="28" viewBox="0 0 28 28" fill="none" xmlns="http://www.w3.org/2000/svg">
<path d="M20.0026 16.0011C19.9496 16.0011 19.9027 16.0151 19.8477 16.0171L16.8219 10.8399C17.3844 10.2819 17.7686 9.56936 17.9256 8.79259C18.0827 8.01582 18.0056 7.20987 17.7041 6.47703C17.4026 5.74418 16.8903 5.11748 16.2322 4.67647C15.5741 4.23545 14.7999 4 14.0079 4C13.2158 4 12.4416 4.23545 11.7835 4.67647C11.1254 5.11748 10.6131 5.74418 10.3116 6.47703C10.0101 7.20987 9.93302 8.01582 10.0901 8.79259C10.2472 9.56936 10.6314 10.2819 11.1939 10.8399L8.17701 16.0181C8.12005 16.0151 8.06809 16.0011 8.01113 16.0011C7.26294 15.9985 6.52903 16.2061 5.89291 16.6002C5.25678 16.9943 4.74397 17.5591 4.41282 18.2304C4.08168 18.9017 3.94548 19.6525 4.01974 20.3975C4.09399 21.1424 4.37571 21.8515 4.83285 22.4442C5.28999 23.0368 5.90419 23.4892 6.60558 23.7498C7.30697 24.0104 8.06739 24.0689 8.80032 23.9184C9.53326 23.768 10.2093 23.4148 10.7515 22.8989C11.2937 22.3831 11.6803 21.7253 11.8674 21.0004H16.1463C16.3344 21.7232 16.7212 22.3787 17.2628 22.8926C17.8045 23.4064 18.4793 23.758 19.2107 23.9073C19.942 24.0567 20.7005 23.9979 21.4001 23.7375C22.0997 23.4772 22.7123 23.0258 23.1684 22.4345C23.6245 21.8433 23.9057 21.1359 23.9801 20.3928C24.0545 19.6497 23.9192 18.9006 23.5895 18.2306C23.2598 17.5605 22.7489 16.9964 22.1149 16.6023C21.4808 16.2083 20.749 16 20.0026 16.0011ZM16.1463 19.0007H11.8674C11.6136 18.0176 10.9951 17.1681 10.1376 16.625L12.9286 11.8357C13.6314 12.0577 14.3854 12.0577 15.0881 11.8357L17.8861 16.621C17.0237 17.1628 16.4012 18.0143 16.1463 19.0007Z" fill="#9298B4"/>
</svg>
