<svg width="28" height="28" viewBox="0 0 28 28" fill="none" xmlns="http://www.w3.org/2000/svg">
<path d="M22.197 2H18.2412C18.6213 2.28147 18.9421 2.63525 19.1851 3.04104C19.4281 3.44683 19.5885 3.89663 19.6572 4.36461L22.077 21.5954C22.2082 22.5145 21.9769 23.4485 21.432 24.2001H22.197C22.8335 24.2001 23.444 23.9472 23.8941 23.4971C24.3442 23.047 24.597 22.4366 24.597 21.8V4.40001C24.597 3.76348 24.3442 3.15303 23.8941 2.70295C23.444 2.25286 22.8335 2 22.197 2Z" fill="#9298B4"/>
<path d="M20.8902 21.7628L18.4686 4.53198C18.3794 3.90223 18.0438 3.33364 17.5356 2.95113C17.0275 2.56863 16.3882 2.40348 15.7584 2.49198L5.06336 3.99258C4.4336 4.0818 3.86502 4.41736 3.48251 4.92553C3.1 5.4337 2.93486 6.07293 3.02335 6.70279L5.44196 23.9336C5.48578 24.2458 5.59066 24.5462 5.75061 24.8179C5.91056 25.0895 6.12245 25.3269 6.37418 25.5166C6.62591 25.7064 6.91255 25.8446 7.21772 25.9235C7.52289 26.0025 7.84062 26.0205 8.15277 25.9766L18.8478 24.473C19.478 24.3844 20.0472 24.0491 20.4302 23.5408C20.8132 23.0326 20.9787 22.393 20.8902 21.7628ZM7.77057 8.39539C7.70557 8.44003 7.63242 8.47142 7.55529 8.48776C7.47816 8.50411 7.39857 8.5051 7.32106 8.49066C7.24355 8.47623 7.16964 8.44666 7.10356 8.40365C7.03749 8.36064 6.98053 8.30503 6.93596 8.23999L6.47696 7.57219L6.21836 8.34259C6.16768 8.49377 6.05902 8.61861 5.91628 8.68967C5.77355 8.76073 5.60843 8.77218 5.45726 8.72149C5.30609 8.67081 5.18124 8.56215 5.11018 8.41941C5.03912 8.27668 5.02768 8.11156 5.07836 7.96039L5.71916 6.05299C5.76093 5.95314 5.82795 5.86587 5.91365 5.79975C5.99934 5.73363 6.10076 5.69095 6.20794 5.67588C6.31512 5.66081 6.42438 5.67388 6.52499 5.7138C6.62559 5.75372 6.71408 5.81912 6.78176 5.90359L7.92177 7.56079C8.01233 7.69154 8.04727 7.85289 8.01892 8.00939C7.99057 8.16589 7.90124 8.30473 7.77057 8.39539ZM14.9868 14.3696L13.1706 16.7798C12.979 17.0338 12.6944 17.2013 12.3794 17.2455C12.0644 17.2897 11.7447 17.207 11.4906 17.0156L9.07977 15.2C8.63314 14.8634 8.3385 14.3632 8.26064 13.8094C8.18277 13.2556 8.32807 12.6935 8.66457 12.2468C9.00136 11.8002 9.50172 11.5057 10.0556 11.4279C10.6095 11.3502 11.1717 11.4956 11.6184 11.8322C11.7833 11.6064 11.9914 11.4156 12.2308 11.271C12.4701 11.1264 12.7357 11.0308 13.0123 10.9899C13.2889 10.9489 13.5709 10.9633 13.8418 11.0323C14.1128 11.1012 14.3673 11.2234 14.5907 11.3917C14.814 11.5599 15.0016 11.7709 15.1426 12.0124C15.2836 12.2538 15.3753 12.5209 15.4121 12.798C15.449 13.0752 15.4304 13.3569 15.3573 13.6268C15.2843 13.8967 15.1584 14.1494 14.9868 14.3702V14.3696ZM18.8322 20.5052L18.1914 22.4132C18.156 22.5189 18.0918 22.6127 18.006 22.6839C17.9203 22.7552 17.8164 22.8012 17.706 22.8167C17.5956 22.8322 17.483 22.8167 17.381 22.7718C17.2789 22.7269 17.1914 22.6545 17.1282 22.5626L15.9882 20.9048C15.898 20.7737 15.8635 20.6121 15.8924 20.4556C15.9214 20.2991 16.0113 20.1604 16.1424 20.0702C16.2735 19.98 16.4351 19.9455 16.5916 19.9745C16.7481 20.0034 16.8868 20.0933 16.977 20.2244L17.4378 20.8934L17.6964 20.123C17.7471 19.9718 17.8557 19.847 17.9985 19.7759C18.0691 19.7408 18.1461 19.7198 18.2248 19.7144C18.3036 19.7089 18.3826 19.719 18.4575 19.7441C18.5323 19.7692 18.6015 19.8088 18.6611 19.8606C18.7206 19.9125 18.7694 19.9755 18.8046 20.0462C18.8398 20.1169 18.8607 20.1938 18.8661 20.2725C18.8716 20.3513 18.8615 20.4304 18.8364 20.5052H18.8322Z" fill="#9298B4"/>
</svg>
