<svg width="28" height="28" viewBox="0 0 28 28" fill="none" xmlns="http://www.w3.org/2000/svg">
<path d="M15.6047 24.5003L14.5911 24.528L14.5794 24.5282C14.3489 24.5281 14.1612 24.3429 14.1581 24.1124C14.155 23.8819 14.3377 23.6916 14.5681 23.6854L15.2527 23.6666C15.1091 23.3522 14.9607 23.0406 14.8003 22.7362L13.7891 22.8704C13.7706 22.8728 13.7519 22.8741 13.7332 22.8741C13.5113 22.8738 13.3277 22.7014 13.3132 22.4801C13.2988 22.2586 13.4585 22.064 13.6784 22.0348L14.353 21.9453C14.1767 21.6473 13.9905 21.3564 13.7982 21.0696L12.8188 21.3059C12.5925 21.3604 12.3648 21.2212 12.3103 20.9949C12.2557 20.7686 12.3949 20.5409 12.6213 20.4863L13.274 20.3288C13.068 20.0518 12.856 19.7801 12.6352 19.5155L11.69 19.8513C11.4706 19.9292 11.2296 19.8146 11.1516 19.5952C11.0736 19.3758 11.1882 19.1348 11.4076 19.0568L12.0438 18.8309C11.8097 18.577 11.569 18.3296 11.3217 18.0889L10.415 18.5225C10.2049 18.6229 9.95321 18.5341 9.8528 18.324C9.7524 18.114 9.84123 17.8623 10.0513 17.7619L10.6518 17.4748C10.3931 17.2472 10.1284 17.0265 9.85783 16.8127L9.00869 17.3344C8.88035 17.4146 8.71886 17.4198 8.58563 17.348C8.45239 17.2763 8.3678 17.1386 8.36406 16.9874C8.36033 16.8361 8.43792 16.6944 8.56746 16.6162L9.13455 16.2677C8.85453 16.0676 8.5706 15.8733 8.27965 15.6887L7.48529 16.2996C7.36593 16.3914 7.2067 16.4125 7.06757 16.355C6.92843 16.2976 6.83052 16.1702 6.81074 16.021C6.79096 15.8718 6.85228 15.7233 6.97158 15.6315L7.50659 15.22C7.20698 15.0496 6.9005 14.8909 6.59125 14.737L5.86249 15.43C5.75346 15.5343 5.59704 15.5723 5.45233 15.5297C5.30762 15.4871 5.1967 15.3705 5.16148 15.2238C5.12626 15.0771 5.17213 14.9228 5.28171 14.8191L5.7683 14.3563C5.4533 14.2184 5.13405 14.0891 4.8106 13.9684L4.15777 14.7346C4.06049 14.8504 3.90854 14.9054 3.75964 14.8783C3.61073 14.8513 3.48773 14.7465 3.43739 14.6039C3.38705 14.4611 3.41706 14.3024 3.51604 14.1879L3.95755 13.6698C3.40383 13.4937 2.83877 13.3468 2.26574 13.223C1.89582 18.8315 5.54688 23.9175 10.979 25.361C11.3522 25.4661 11.7315 25.5481 12.1147 25.6065C12.3032 25.6407 12.4825 25.6619 12.6622 25.6833C12.7189 25.693 12.7763 25.6983 12.8338 25.6992L12.8898 25.7028C13.1276 25.7333 13.3672 25.7496 13.607 25.7516L13.6164 25.7518L13.6255 25.7495L13.6854 25.752C14.4626 25.7815 15.2408 25.7292 16.0071 25.596C15.9442 25.4015 15.8776 25.2029 15.8055 24.999C15.744 24.8301 15.6711 24.6669 15.6047 24.5003Z" fill="#9298B4"/>
<path d="M25.8357 13.6739L25.8349 13.6473L25.8371 13.6206L25.8293 13.5821L25.8316 13.5485C25.8275 13.313 25.811 13.0779 25.7822 12.8441L25.7791 12.7932C25.7785 12.7438 25.7739 12.6945 25.7653 12.6459C25.7448 12.4498 25.72 12.2703 25.6883 12.0976C25.6275 11.7095 25.5428 11.3255 25.4348 10.9478C24.9034 8.95698 23.8535 7.14272 22.3921 5.69017C19.5138 2.80462 15.3452 1.61785 11.3787 2.55466C11.588 3.13231 11.8202 3.69838 12.0834 4.24703L12.536 3.7366C12.6911 3.5652 12.9553 3.55067 13.1283 3.7041C13.3012 3.85752 13.3183 4.12159 13.1666 4.29599L12.4983 5.04965C12.6629 5.3529 12.8353 5.65099 13.0157 5.94391L13.4066 5.39725C13.4939 5.27393 13.6405 5.20676 13.7909 5.22114C13.9412 5.23553 14.0724 5.3293 14.1347 5.46695C14.197 5.60456 14.1808 5.76504 14.0924 5.88749L13.5074 6.7055C13.7027 6.9905 13.9028 7.27181 14.1131 7.54491L14.4461 6.9579C14.5609 6.75548 14.8181 6.68443 15.0205 6.79923C15.2229 6.91402 15.294 7.17121 15.1792 7.37364L14.6835 8.24753C14.9067 8.51003 15.139 8.76386 15.376 9.01336L15.6431 8.40105C15.7377 8.19023 15.9844 8.09489 16.1962 8.18728C16.408 8.27967 16.5059 8.52538 16.4157 8.73814L16.0166 9.65306C16.2654 9.89163 16.5209 10.123 16.783 10.347L16.9841 9.71138C17.0544 9.4894 17.2912 9.36636 17.5132 9.43662C17.7352 9.50687 17.8583 9.74374 17.788 9.96576L17.4846 10.9244C17.7575 11.1358 18.0349 11.3415 18.3194 11.5376L18.4553 10.8742C18.502 10.6462 18.7247 10.4992 18.9527 10.5459C19.1807 10.5926 19.3277 10.8153 19.281 11.0433L19.0796 12.027C19.3725 12.2086 19.6713 12.3805 19.9744 12.5459L20.0396 11.8768C20.0626 11.6455 20.2686 11.4766 20.4999 11.4992C20.7312 11.5218 20.9006 11.7274 20.8785 11.9588L20.7808 12.9611C21.0916 13.1114 21.4055 13.2551 21.7252 13.3882L21.72 12.7085C21.7183 12.4758 21.9056 12.2857 22.1382 12.2839H22.1415C22.3731 12.284 22.5612 12.4708 22.563 12.7023L22.5707 13.7212C22.8944 13.8375 23.2236 13.9406 23.5548 14.0391L23.4782 13.3603C23.4602 13.2101 23.5241 13.0618 23.6455 12.9716C23.767 12.8815 23.9275 12.8633 24.066 12.9241C24.2046 12.9849 24.2999 13.1152 24.3159 13.2657L24.4294 14.2714C24.6054 14.3144 24.7789 14.3643 24.9567 14.4022C25.2299 14.4607 25.5222 14.5127 25.8266 14.5622C25.8408 14.2628 25.8465 13.9656 25.8357 13.6739Z" fill="#9298B4"/>
<path d="M24.2643 15.0986L23.7346 16.0003C23.6162 16.2003 23.3585 16.2669 23.1581 16.1491C22.9578 16.0314 22.8905 15.7738 23.0077 15.5731L23.4155 14.8791C23.0448 14.7712 22.6772 14.6556 22.3155 14.5262L21.6992 15.3611C21.561 15.5484 21.2971 15.5882 21.1098 15.45C20.9225 15.3118 20.8826 15.0479 21.0209 14.8605L21.5037 14.2065C21.1477 14.0599 20.7967 13.9034 20.4508 13.7369L19.7416 14.5127C19.5843 14.6839 19.3182 14.6956 19.1466 14.5388C18.975 14.3819 18.9627 14.1158 19.1191 13.9439L19.6708 13.3406C19.3313 13.159 18.9981 12.9674 18.6711 12.7656L17.8833 13.4643C17.7709 13.566 17.6125 13.5995 17.4686 13.5521C17.3247 13.5047 17.2172 13.3836 17.1873 13.235C17.1574 13.0864 17.2095 12.9332 17.3239 12.8338L17.9334 12.2932C17.6156 12.0768 17.3059 11.8493 17.0017 11.6147L16.1446 12.2275C16.0221 12.316 15.8617 12.3321 15.7241 12.2698C15.5865 12.2075 15.4927 12.0764 15.4783 11.926C15.4639 11.7756 15.5311 11.629 15.6544 11.5417L16.3252 11.0621C16.0317 10.814 15.7457 10.5575 15.4671 10.2926L14.5452 10.8156C14.4142 10.8913 14.2526 10.8909 14.122 10.8146C13.9913 10.7383 13.9116 10.5979 13.9131 10.4465C13.9145 10.2952 13.997 10.1563 14.1291 10.0825L14.8431 9.6775C14.5765 9.40016 14.3165 9.1165 14.0664 8.82362L13.1017 9.24429C12.9634 9.30639 12.8023 9.28938 12.68 9.19976C12.5577 9.11014 12.493 8.96174 12.5105 8.81113C12.528 8.66052 12.625 8.53088 12.7646 8.47169L13.515 8.14446C13.2788 7.84135 13.0529 7.53017 12.8345 7.21285L11.8306 7.53072C11.7895 7.54395 11.7465 7.55068 11.7032 7.55068C11.4954 7.55045 11.3187 7.39878 11.287 7.19335C11.2554 6.98793 11.3781 6.79006 11.5763 6.72723L12.3567 6.48008C12.153 6.15438 11.9589 5.82203 11.7747 5.4831L10.7455 5.69364C10.7176 5.69945 10.6892 5.70236 10.6607 5.70231C10.4445 5.70203 10.2636 5.53819 10.2419 5.32308C10.2202 5.10798 10.3649 4.91131 10.5768 4.86797L11.3663 4.70634C11.0627 4.07638 10.7937 3.43036 10.5605 2.77112C10.5474 2.77531 10.5334 2.77771 10.5204 2.78209L10.5037 2.79956L10.3759 2.83188C10.2966 2.8512 10.2185 2.87526 10.1421 2.90394C10.0544 2.93524 9.96699 2.96649 9.88281 3.00148C9.78978 3.03565 9.71445 3.06261 9.64263 3.09327C6.66308 4.28369 4.29828 6.63811 3.09472 9.61227C3.06559 9.67511 3.04065 9.73979 3.01999 9.80594L2.99883 9.86583C2.9626 9.94793 2.93295 10.0303 2.90313 10.1126C2.88008 10.1813 2.8562 10.2522 2.83582 10.3267C2.75122 10.574 2.69503 10.7615 2.651 10.9443C2.622 11.0359 2.60633 11.0953 2.59052 11.1548C2.49131 11.5589 2.41317 11.9679 2.35632 12.3801C3.01727 12.5178 3.67057 12.6902 4.3134 12.8966L4.36374 12.0902C4.37315 11.9399 4.46203 11.806 4.59688 11.739C4.73172 11.6721 4.89211 11.6821 5.01755 11.7654C5.14299 11.8487 5.21449 11.9926 5.20509 12.1428L5.13953 13.192C5.50046 13.3277 5.85649 13.4736 6.20769 13.6299L6.34406 12.8216C6.38283 12.5921 6.60029 12.4375 6.82978 12.4763C7.05927 12.5151 7.21389 12.7325 7.17512 12.962L6.99998 14.0005C7.34445 14.1727 7.68403 14.3531 8.01697 14.5449L8.23692 13.756C8.30077 13.5334 8.53224 13.404 8.75532 13.4662C8.97841 13.5284 9.10956 13.7589 9.04903 13.9824L8.76565 14.9989C9.09029 15.2058 9.40733 15.4235 9.71888 15.649L10.0217 14.883C10.0767 14.7425 10.2027 14.6421 10.352 14.6199C10.5013 14.5976 10.651 14.6568 10.7448 14.7751C10.8385 14.8935 10.8618 15.0528 10.8058 15.193L10.4154 16.1808C10.7164 16.4195 11.0101 16.667 11.2965 16.9231L11.6791 16.1906C11.7488 16.0571 11.8844 15.9709 12.0349 15.9646C12.1854 15.9582 12.3278 16.0326 12.4085 16.1597C12.4893 16.2868 12.4961 16.4473 12.4264 16.5808L11.9383 17.5157C12.2128 17.7842 12.4813 18.0591 12.7398 18.3436L13.1905 17.6642C13.2736 17.5385 13.4176 17.4667 13.568 17.4759C13.7185 17.4852 13.8525 17.5741 13.9196 17.7091C13.9867 17.8441 13.9766 18.0046 13.8931 18.1301L13.3097 19.0093C13.5543 19.3053 13.7905 19.6083 14.0183 19.9184L14.5398 19.2875C14.6881 19.1081 14.9538 19.0828 15.1333 19.2311C15.3128 19.3795 15.338 19.6452 15.1897 19.8247L14.5199 20.6351C14.7335 20.9538 14.9375 21.2795 15.1318 21.612L15.7118 21.0433C15.8192 20.9375 15.975 20.8971 16.1203 20.9375C16.2655 20.9778 16.3782 21.0927 16.4157 21.2387C16.4533 21.3848 16.4099 21.5397 16.3021 21.645L15.5612 22.3714C15.7398 22.7115 15.9058 23.0593 16.0644 23.4113L16.6941 22.9118C16.8765 22.7679 17.1409 22.7987 17.2853 22.9807C17.4297 23.1626 17.3997 23.4271 17.2181 23.572L16.4003 24.2209C16.4657 24.3859 16.5381 24.5472 16.599 24.7144C16.6861 24.9609 16.7643 25.1977 16.8382 25.4294C16.9239 25.4089 17.005 25.3916 17.0955 25.3681C17.4267 25.2829 17.7534 25.1808 18.0743 25.0623C18.404 24.9464 18.7271 24.812 19.0418 24.6599C21.5455 23.4995 23.5601 21.4938 24.7315 18.9952C24.8856 18.6795 25.0217 18.3554 25.139 18.0242C25.2581 17.7038 25.3608 17.3775 25.4469 17.0467C25.5443 16.6746 25.6153 16.3449 25.6638 16.0384C25.7013 15.826 25.7321 15.6148 25.7579 15.4048C25.4147 15.3501 25.0865 15.2924 24.7805 15.2265C24.6064 15.1895 24.4368 15.1403 24.2643 15.0986Z" fill="#9298B4"/>
</svg>
