<svg width="28" height="28" viewBox="0 0 28 28" fill="none" xmlns="http://www.w3.org/2000/svg">
<path d="M13.0552 25.7541C7.29238 25.2962 2.7038 20.7064 2.24589 14.9447C2.26595 14.9447 2.28484 14.9518 2.3049 14.9495C2.65896 14.9058 3.01419 14.8845 3.37887 14.8845C8.74756 14.8845 13.1154 19.2524 13.1154 24.6211C13.1154 24.9858 13.0942 25.3398 13.0505 25.6951C13.0482 25.7151 13.0564 25.734 13.0552 25.7541ZM14.9495 2.3049C14.9058 2.65896 14.8845 3.01419 14.8845 3.37887C14.8845 8.74756 19.2524 13.1154 24.6211 13.1154C24.9858 13.1154 25.3398 13.0942 25.6951 13.0505C25.7151 13.0482 25.734 13.0564 25.7541 13.0552C25.2962 7.29238 20.7076 2.7038 14.9447 2.24589C14.9447 2.26595 14.9518 2.28484 14.9495 2.3049ZM24.6211 14.8857C18.2764 14.8857 13.1143 9.72357 13.1143 3.37887C13.1143 2.99177 13.1426 2.61647 13.1827 2.23999C7.31953 2.64125 2.64243 7.31835 2.23999 13.1827C2.61647 13.1426 2.99177 13.1143 3.37887 13.1143C9.72357 13.1143 14.8857 18.2764 14.8857 24.6211C14.8857 25.0082 14.8574 25.3835 14.8173 25.76C20.6816 25.3575 25.3587 20.6805 25.7612 14.8161C25.3847 14.8562 25.0094 14.8845 24.6223 14.8845L24.6211 14.8857Z" fill="#9298B4"/>
</svg>
