<svg width="28" height="28" viewBox="0 0 28 28" fill="none" xmlns="http://www.w3.org/2000/svg">
<path fillRule="evenodd" clipRule="evenodd" d="M7.99992 4H19.9996C20.7952 4 21.5582 4.31606 22.1208 4.87865C22.6834 5.44125 22.9995 6.20429 22.9995 6.99991V21.7995C22.9985 22.1367 22.9123 22.4681 22.7489 22.7631C22.5855 23.058 22.3502 23.3068 22.0648 23.4865C21.7795 23.6661 21.4533 23.7706 21.1167 23.7903C20.7801 23.8101 20.444 23.7444 20.1396 23.5994C19.9098 23.4881 19.6862 23.3646 19.4696 23.2294C19.0472 22.9103 18.5288 22.7446 17.9996 22.7595C17.4675 22.7455 16.9462 22.911 16.5197 23.2294C15.7816 23.7447 14.8998 24.0142 13.9997 23.9994C13.0998 24.0135 12.2182 23.7441 11.4798 23.2294C11.0529 22.9117 10.5319 22.7463 9.99986 22.7595C9.47094 22.7462 8.95301 22.9118 8.5299 23.2294C8.49117 23.2523 8.45275 23.2752 8.41442 23.2981C8.23504 23.4049 8.05766 23.5106 7.85992 23.6094C7.55474 23.7548 7.2177 23.8204 6.88028 23.8002C6.54285 23.78 6.21606 23.6745 5.93043 23.4938C5.6448 23.313 5.40964 23.0628 5.24694 22.7665C5.08423 22.4702 4.99927 22.1375 5 21.7995V6.99991C5 6.20429 5.31607 5.44125 5.87866 4.87865C6.44125 4.31606 7.20429 4 7.99992 4ZM9.99986 19.8178H13.9997C14.265 19.8178 14.5193 19.7124 14.7068 19.5249C14.8944 19.3374 14.9997 19.083 14.9997 18.8178C14.9997 18.5526 14.8944 18.2983 14.7068 18.1107C14.5193 17.9232 14.265 17.8178 13.9997 17.8178H9.99986C9.73465 17.8178 9.48031 17.9232 9.29277 18.1107C9.10524 18.2983 8.99989 18.5526 8.99989 18.8178C8.99989 19.083 9.10524 19.3374 9.29277 19.5249C9.48031 19.7124 9.73465 19.8178 9.99986 19.8178ZM9.99986 15.8179H17.9996C18.2648 15.8179 18.5192 15.7125 18.7067 15.525C18.8942 15.3375 18.9996 15.0831 18.9996 14.8179C18.9996 14.5527 18.8942 14.2984 18.7067 14.1108C18.5192 13.9233 18.2648 13.818 17.9996 13.818H9.99986C9.73465 13.818 9.48031 13.9233 9.29277 14.1108C9.10524 14.2984 8.99989 14.5527 8.99989 14.8179C8.99989 15.0831 9.10524 15.3375 9.29277 15.525C9.48031 15.7125 9.73465 15.8179 9.99986 15.8179ZM10.7425 9.02381H11.4653C12.1253 9.02381 12.6623 9.51134 12.6623 10.1106V10.4387C12.6623 11.0034 12.1854 11.4687 11.5782 11.5205V11.7511C11.5782 11.9889 11.3658 12.1817 11.1039 12.1817C10.842 12.1817 10.6296 11.9889 10.6296 11.7511V11.5206C10.0223 11.4687 9.54546 11.0034 9.54546 10.4388C9.54546 10.201 9.75783 10.0081 10.0198 10.0081C10.2817 10.0081 10.494 10.2009 10.494 10.4388C10.494 10.5631 10.6055 10.6643 10.7425 10.6643H11.4652C11.6022 10.6643 11.7136 10.5631 11.7136 10.4387V10.1106C11.7136 9.98625 11.6022 9.88507 11.4652 9.88507H10.7425C10.0824 9.88507 9.54543 9.39754 9.54543 8.79825V8.47014C9.54543 7.90549 10.0223 7.44017 10.6296 7.38833V7.15779C10.6296 6.91998 10.8419 6.72717 11.1039 6.72717C11.3658 6.72717 11.5781 6.91995 11.5781 7.15779V7.38833C12.1855 7.44017 12.6623 7.90549 12.6623 8.47014C12.6623 8.70795 12.4499 8.90076 12.188 8.90076C11.9261 8.90076 11.7137 8.70798 11.7137 8.47014C11.7137 8.34579 11.6023 8.24461 11.4653 8.24461H10.7425C10.6055 8.24461 10.4941 8.34579 10.4941 8.47014V8.79825C10.4941 8.92263 10.6055 9.02381 10.7425 9.02381Z" fill="#9298B4"/>
</svg>
