<svg width="28" height="28" viewBox="0 0 28 28" fill="none" xmlns="http://www.w3.org/2000/svg">
<path d="M17.1017 21.5628L15.3779 22.2673L19.8789 24.1068C20.5451 24.3791 21.3059 24.0598 21.5782 23.3936L26.9029 10.3654C27.1753 9.69914 26.8557 8.93833 26.1896 8.66604L21.0188 6.55273V19.2171C21.0188 20.5126 19.9686 21.5628 18.6731 21.5628H17.1017Z" fill="#9298B4"/>
<path d="M6.94447 6.56738L1.81049 8.66568C1.14425 8.93796 0.824916 9.69878 1.09721 10.365L6.42187 23.3932C6.69416 24.0594 7.45498 24.3788 8.12121 24.1065L14.3459 21.5624H9.29019C7.99467 21.5624 6.94447 20.5122 6.94447 19.2167V6.56738Z" fill="#9298B4"/>
<path d="M17.2891 20.4389H18.3191C19.2055 20.4389 19.924 19.7203 19.924 18.834V7.63289C19.924 7.63257 19.924 7.63224 19.924 7.63191V4.79729C19.924 3.91092 19.2055 3.19238 18.3191 3.19238H9.68284C8.79648 3.19238 8.07794 3.91092 8.07794 4.79729V7.63186V7.63292V18.834C8.07794 19.7203 8.79648 20.4389 9.68285 20.4389H17.2883H17.2891ZM10.1435 7.43557C9.58091 7.43557 9.12318 6.97784 9.12318 6.41522V6.02947C9.12318 5.89203 9.2346 5.7806 9.37205 5.7806C9.50949 5.7806 9.62092 5.89202 9.62092 6.02947V6.41522C9.62092 6.70339 9.85537 6.93784 10.1435 6.93784C10.4317 6.93784 10.6662 6.70339 10.6662 6.41522V5.25798C10.6662 4.96935 10.4322 4.73536 10.1435 4.73536C10.0061 4.73536 9.89467 4.62394 9.89467 4.48649C9.89467 4.34904 10.0061 4.23762 10.1435 4.23762H11.6865C11.824 4.23762 11.9354 4.34904 11.9354 4.48649C11.9354 4.62394 11.824 4.73536 11.6865 4.73536C11.3979 4.73536 11.1639 4.96935 11.1639 5.25798V6.41522C11.1639 6.97784 10.7062 7.43557 10.1435 7.43557ZM15.544 15.1504H14.7725H13.2295H12.458C12.3206 15.1504 12.2091 15.039 12.2091 14.9016C12.2091 14.7641 12.3206 14.6527 12.458 14.6527C12.7466 14.6527 12.9806 14.4187 12.9806 14.1301V13.3535C12.9806 13.2796 12.9177 13.2217 12.8437 13.2217C11.8557 13.2217 11.0519 12.4179 11.0519 11.4299C11.0519 10.6759 11.5212 10.0108 12.2142 9.7517C12.2835 8.82657 13.0584 8.09507 14.001 8.09507C14.9435 8.09507 15.7184 8.82657 15.7878 9.7517C16.4807 10.0108 16.95 10.6759 16.95 11.4299C16.95 12.4179 16.1462 13.2217 15.1582 13.2217C15.0843 13.2217 15.0213 13.2796 15.0213 13.3535V14.1301C15.0213 14.4187 15.2553 14.6527 15.5439 14.6527C15.6814 14.6527 15.7928 14.7641 15.7928 14.9016C15.7928 15.039 15.6814 15.1504 15.544 15.1504ZM16.0666 18.3733V17.9875C16.0666 17.8501 16.178 17.7387 16.3154 17.7387C16.4529 17.7387 16.5643 17.8501 16.5643 17.9875V18.3733C16.5643 18.6615 16.7988 18.8959 17.087 18.8959C17.3751 18.8959 17.6096 18.6615 17.6096 18.3733V17.216C17.6096 16.9274 17.3756 16.6934 17.087 16.6934C16.9495 16.6934 16.8381 16.582 16.8381 16.4446C16.8381 16.3071 16.9495 16.1957 17.087 16.1957H18.6299C18.7674 16.1957 18.8788 16.3071 18.8788 16.4446C18.8788 16.582 18.7674 16.6934 18.6299 16.6934C18.3413 16.6934 18.1073 16.9274 18.1073 17.216V18.3733C18.1073 18.9359 17.6496 19.3936 17.087 19.3936C16.5243 19.3936 16.0666 18.9359 16.0666 18.3733Z" fill="#9298B4"/>
<path d="M16.452 11.4299C16.452 10.8386 16.0527 10.3232 15.4809 10.1763C15.3681 10.1474 15.2904 10.044 15.2941 9.92754C15.2945 9.91403 15.2948 9.90049 15.2948 9.88688C15.2948 9.17332 14.7143 8.59277 14.0007 8.59277C13.2871 8.59277 12.7066 9.1733 12.7066 9.88688C12.7066 9.90049 12.7069 9.91403 12.7073 9.92754C12.7109 10.044 12.6333 10.1474 12.5205 10.1763C11.9487 10.3232 11.5494 10.8386 11.5494 11.4299C11.5494 12.1434 12.1299 12.724 12.8435 12.724C12.9529 12.724 13.0619 12.7102 13.1672 12.6831C13.2417 12.6639 13.3209 12.6803 13.3817 12.7274C13.4425 12.7745 13.4781 12.8472 13.4781 12.9241V14.6527H14.5233V12.9241C14.5233 12.8472 14.5589 12.7745 14.6197 12.7274C14.6805 12.6803 14.7598 12.6639 14.8343 12.6831C14.9396 12.7102 15.0485 12.724 15.158 12.724C15.8715 12.724 16.452 12.1434 16.452 11.4299Z" fill="#9298B4"/>
</svg>
