<svg width="28" height="28" viewBox="0 0 28 28" fill="none" xmlns="http://www.w3.org/2000/svg">
<path d="M21.3714 4.84573C19.1139 3.02441 16.2627 2.10225 13.3663 2.25667C10.4699 2.41109 7.73293 3.63117 5.68197 5.68218C3.63102 7.73319 2.411 10.4702 2.25665 13.3666C2.10231 16.263 3.02454 19.1142 4.84592 21.3716L21.3714 4.84573ZM18.7513 5.08976L19.3456 4.49586C19.3844 4.45574 19.4307 4.42374 19.482 4.40173C19.5332 4.37972 19.5883 4.36813 19.6441 4.36765C19.6999 4.36716 19.7552 4.37779 19.8068 4.39891C19.8584 4.42003 19.9053 4.45121 19.9447 4.49065C19.9842 4.53009 20.0154 4.57698 20.0365 4.6286C20.0576 4.68022 20.0682 4.73553 20.0677 4.79129C20.0673 4.84706 20.0557 4.90218 20.0337 4.95342C20.0116 5.00466 19.9796 5.05101 19.9395 5.08976L19.3456 5.68323C19.3066 5.72226 19.2603 5.75322 19.2094 5.77435C19.1584 5.79548 19.1038 5.80636 19.0486 5.80638C18.9934 5.8064 18.9388 5.79556 18.8878 5.77446C18.8369 5.75337 18.7905 5.72244 18.7515 5.68344C18.7125 5.64445 18.6815 5.59815 18.6604 5.54719C18.6393 5.49623 18.6284 5.4416 18.6284 5.38643C18.6283 5.33127 18.6392 5.27663 18.6603 5.22566C18.6814 5.17468 18.7123 5.12878 18.7513 5.08976ZM16.9696 6.87145L17.5635 6.27755C17.6025 6.23853 17.6488 6.20757 17.6998 6.18644C17.7507 6.16531 17.8054 6.15442 17.8605 6.15441C17.9157 6.15439 17.9703 6.16523 18.0213 6.18633C18.0723 6.20742 18.1186 6.23835 18.1576 6.27734C18.1966 6.31634 18.2276 6.36264 18.2487 6.4136C18.2699 6.46456 18.2807 6.51919 18.2808 6.57436C18.2808 6.62952 18.2699 6.68416 18.2488 6.73513C18.2278 6.78611 18.1968 6.83243 18.1578 6.87145L17.5639 7.46535C17.5252 7.50547 17.4788 7.53747 17.4276 7.55948C17.3764 7.58149 17.3212 7.59308 17.2655 7.59356C17.2097 7.59405 17.1544 7.58342 17.1028 7.5623C17.0512 7.54118 17.0043 7.50999 16.9648 7.47056C16.9254 7.43112 16.8942 7.38423 16.8731 7.33261C16.852 7.28099 16.8413 7.22568 16.8418 7.16991C16.8423 7.11415 16.8539 7.05903 16.8759 7.00779C16.8979 6.95654 16.9295 6.9102 16.9696 6.87145ZM15.1875 8.65315L15.7818 8.05925C15.8606 7.9805 15.9675 7.93627 16.0789 7.93631C16.1903 7.93635 16.2972 7.98065 16.3759 8.05946C16.4547 8.13827 16.4989 8.24514 16.4989 8.35656C16.4988 8.46798 16.4545 8.57482 16.3757 8.65357L15.7814 9.24789C15.7025 9.32665 15.5956 9.37085 15.4841 9.37077C15.3727 9.37069 15.2658 9.32634 15.1871 9.24747C15.1083 9.1686 15.0641 9.06168 15.0642 8.95022C15.0643 8.83877 15.1086 8.73191 15.1875 8.65315ZM13.4058 10.4357L13.9997 9.84137C14.0789 9.76486 14.185 9.72253 14.2951 9.72348C14.4053 9.72444 14.5106 9.76861 14.5885 9.84649C14.6663 9.92436 14.7105 10.0297 14.7115 10.1398C14.7124 10.25 14.6701 10.3561 14.5936 10.4353L13.9997 11.0296C13.9609 11.0697 13.9146 11.1017 13.8634 11.1237C13.8121 11.1457 13.757 11.1573 13.7012 11.1578C13.6455 11.1583 13.5902 11.1477 13.5385 11.1265C13.4869 11.1054 13.44 11.0742 13.4006 11.0348C13.3612 10.9954 13.33 10.9485 13.3088 10.8968C13.2877 10.8452 13.2771 10.7899 13.2776 10.7342C13.2781 10.6784 13.2897 10.6233 13.3117 10.572C13.3337 10.5208 13.3657 10.4744 13.4058 10.4357ZM11.6237 12.2174L12.218 11.6235C12.257 11.5845 12.3033 11.5536 12.3543 11.5325C12.4053 11.5114 12.4599 11.5005 12.5151 11.5005C12.5703 11.5006 12.6249 11.5115 12.6758 11.5326C12.7268 11.5537 12.7731 11.5847 12.8121 11.6237C12.8511 11.6627 12.882 11.709 12.9031 11.76C12.9242 11.811 12.9351 11.8656 12.935 11.9208C12.935 11.976 12.9241 12.0306 12.903 12.0815C12.8819 12.1325 12.8509 12.1788 12.8119 12.2178L12.2176 12.8117C12.1388 12.8905 12.0319 12.9347 11.9205 12.9346C11.8091 12.9346 11.7022 12.8903 11.6235 12.8115C11.5447 12.7327 11.5005 12.6258 11.5005 12.5144C11.5006 12.403 11.5449 12.2961 11.6237 12.2174ZM9.84156 13.9995L10.4355 13.4056C10.4745 13.3666 10.5208 13.3356 10.5717 13.3145C10.6227 13.2934 10.6773 13.2825 10.7325 13.2825C10.7876 13.2824 10.8423 13.2933 10.8932 13.3144C10.9442 13.3355 10.9905 13.3664 11.0296 13.4054C11.0686 13.4444 11.0996 13.4907 11.1207 13.5417C11.1418 13.5926 11.1527 13.6472 11.1527 13.7024C11.1527 13.7576 11.1419 13.8122 11.1208 13.8632C11.0997 13.9142 11.0688 13.9605 11.0298 13.9995L10.4359 14.5934C10.3571 14.6722 10.2503 14.7165 10.1389 14.7166C10.0274 14.7166 9.92058 14.6724 9.84177 14.5936C9.76296 14.5149 9.71866 14.408 9.71862 14.2966C9.71858 14.1852 9.7628 14.0783 9.84156 13.9995ZM8.05944 15.7816L8.65334 15.1873C8.69234 15.1483 8.73864 15.1173 8.7896 15.0962C8.84056 15.0751 8.89518 15.0642 8.95035 15.0642C9.00552 15.0641 9.06015 15.075 9.11113 15.0961C9.1621 15.1172 9.20842 15.1481 9.24745 15.1871C9.28647 15.2261 9.31743 15.2724 9.33856 15.3234C9.35969 15.3743 9.37058 15.4289 9.3706 15.4841C9.37062 15.5393 9.35977 15.5939 9.33868 15.6449C9.31758 15.6959 9.28665 15.7422 9.24766 15.7812L8.65334 16.3755C8.61459 16.4156 8.56825 16.4476 8.517 16.4696C8.46576 16.4917 8.41065 16.5032 8.35488 16.5037C8.29911 16.5042 8.2438 16.4936 8.19218 16.4725C8.14057 16.4514 8.09367 16.4202 8.05423 16.3807C8.0148 16.3413 7.98361 16.2944 7.96249 16.2428C7.94137 16.1912 7.93075 16.1359 7.93123 16.0801C7.93172 16.0243 7.9433 15.9692 7.96531 15.918C7.98733 15.8667 8.01932 15.8204 8.05944 15.7816ZM6.27732 17.5633L6.87122 16.9694C6.90997 16.9293 6.95631 16.8973 7.00756 16.8753C7.0588 16.8533 7.11391 16.8417 7.16968 16.8412C7.22545 16.8407 7.28076 16.8514 7.33238 16.8725C7.384 16.8936 7.43089 16.9248 7.47033 16.9642C7.50976 17.0037 7.54095 17.0505 7.56207 17.1022C7.58319 17.1538 7.59381 17.2091 7.59333 17.2649C7.59285 17.3206 7.58126 17.3757 7.55925 17.427C7.53723 17.4782 7.50524 17.5246 7.46512 17.5633L6.87164 18.1576C6.8329 18.1978 6.78655 18.2298 6.73531 18.2518C6.68406 18.2738 6.62895 18.2854 6.57318 18.2858C6.51741 18.2863 6.4621 18.2757 6.41049 18.2546C6.35887 18.2335 6.31197 18.2023 6.27254 18.1628C6.2331 18.1234 6.20191 18.0765 6.18079 18.0249C6.15968 17.9733 6.14905 17.918 6.14953 17.8622C6.15002 17.8064 6.1616 17.7513 6.18362 17.7001C6.20563 17.6488 6.23763 17.6025 6.27774 17.5637L6.27732 17.5633ZM4.49604 19.9393C4.4173 19.8606 4.37307 19.7538 4.37307 19.6424C4.37307 19.531 4.4173 19.4242 4.49604 19.3454L5.08994 18.7511C5.12872 18.711 5.17509 18.6791 5.22634 18.6571C5.2776 18.6351 5.33273 18.6236 5.38849 18.6231C5.44426 18.6227 5.49956 18.6333 5.55116 18.6545C5.60277 18.6757 5.64964 18.7069 5.68905 18.7463C5.72846 18.7858 5.75961 18.8327 5.78069 18.8844C5.80177 18.936 5.81236 18.9913 5.81184 19.0471C5.81132 19.1028 5.79969 19.1579 5.77764 19.2092C5.75559 19.2604 5.72356 19.3067 5.68342 19.3454L5.08994 19.9393C5.01118 20.0181 4.90437 20.0623 4.79299 20.0623C4.68162 20.0623 4.57481 20.0181 4.49604 19.9393Z" fill="#9298B4"/>
<path d="M5.99179 22.6014L22.6016 5.99154C22.4112 5.78602 22.2133 5.58805 22.0077 5.39764L5.39789 22.0075C5.58829 22.213 5.78626 22.411 5.99179 22.6014Z" fill="#9298B4"/>
<path d="M6.62762 23.1533C8.88498 24.9751 11.7363 25.8976 14.633 25.7434C17.5297 25.5892 20.267 24.3691 22.3181 22.3179C24.3693 20.2668 25.5893 17.5295 25.7436 14.6328C25.8978 11.7362 24.9752 8.88479 23.1535 6.62744L6.62762 23.1533ZM9.24809 22.9093L8.65377 23.5032C8.61503 23.5433 8.56868 23.5753 8.51744 23.5973C8.46619 23.6193 8.41108 23.6309 8.35531 23.6314C8.29954 23.6319 8.24423 23.6212 8.19261 23.6001C8.141 23.579 8.0941 23.5478 8.05466 23.5084C8.01523 23.4689 7.98404 23.422 7.96292 23.3704C7.9418 23.3188 7.93118 23.2635 7.93166 23.2077C7.93215 23.152 7.94373 23.0968 7.96575 23.0456C7.98776 22.9944 8.01976 22.948 8.05987 22.9093L8.65377 22.3158C8.69277 22.2768 8.73907 22.2458 8.79003 22.2247C8.84099 22.2035 8.89561 22.1927 8.95078 22.1926C9.00595 22.1926 9.06058 22.2035 9.11156 22.2246C9.16253 22.2457 9.20886 22.2766 9.24788 22.3156C9.2869 22.3546 9.31786 22.4009 9.33899 22.4518C9.36012 22.5028 9.37101 22.5574 9.37103 22.6126C9.37105 22.6678 9.3602 22.7224 9.33911 22.7734C9.31801 22.8243 9.28709 22.8702 9.24809 22.9093ZM11.0298 21.1276L10.4359 21.7215C10.3571 21.8003 10.2503 21.8446 10.1389 21.8446C10.0275 21.8447 9.92059 21.8004 9.84178 21.7217C9.76297 21.6429 9.71867 21.5361 9.71863 21.4247C9.71859 21.3133 9.76281 21.2064 9.84157 21.1276L10.4355 20.5337C10.4742 20.4936 10.5206 20.4616 10.5718 20.4395C10.623 20.4175 10.6782 20.4059 10.7339 20.4055C10.7897 20.405 10.845 20.4156 10.8966 20.4367C10.9482 20.4578 10.9951 20.489 11.0346 20.5285C11.074 20.5679 11.1052 20.6148 11.1263 20.6664C11.1474 20.718 11.1581 20.7733 11.1576 20.8291C11.1571 20.8849 11.1455 20.94 11.1235 20.9912C11.1015 21.0425 11.0695 21.0888 11.0294 21.1276H11.0298ZM12.8119 19.3455L12.2176 19.9394C12.1384 20.0159 12.0323 20.0582 11.9221 20.0572C11.812 20.0563 11.7067 20.0121 11.6288 19.9342C11.5509 19.8564 11.5068 19.751 11.5058 19.6409C11.5048 19.5308 11.5472 19.4247 11.6237 19.3455L12.218 18.7511C12.257 18.7121 12.3034 18.6812 12.3543 18.6601C12.4053 18.639 12.4599 18.6282 12.5151 18.6282C12.5703 18.6282 12.6249 18.6391 12.6759 18.6602C12.7268 18.6814 12.7731 18.7123 12.8121 18.7513C12.8511 18.7904 12.882 18.8367 12.9031 18.8877C12.9242 18.9386 12.9351 18.9933 12.9351 19.0484C12.935 19.1036 12.9241 19.1582 12.903 19.2092C12.8819 19.2602 12.8509 19.3065 12.8119 19.3455ZM14.5936 17.5633L13.9997 18.1577C13.9205 18.2342 13.8144 18.2765 13.7043 18.2755C13.5941 18.2746 13.4888 18.2304 13.4109 18.1525C13.333 18.0747 13.2889 17.9693 13.2879 17.8592C13.287 17.7491 13.3293 17.643 13.4058 17.5638L13.9997 16.9694C14.0789 16.8929 14.185 16.8506 14.2951 16.8516C14.4053 16.8525 14.5106 16.8967 14.5885 16.9746C14.6664 17.0524 14.7105 17.1578 14.7115 17.2679C14.7124 17.378 14.6701 17.4841 14.5936 17.5633ZM16.3757 15.7812L15.7814 16.3755C15.7427 16.4157 15.6963 16.4476 15.6451 16.4697C15.5938 16.4917 15.5387 16.5033 15.4829 16.5037C15.4272 16.5042 15.3719 16.4936 15.3202 16.4725C15.2686 16.4514 15.2217 16.4202 15.1823 16.3807C15.1429 16.3413 15.1117 16.2944 15.0906 16.2428C15.0694 16.1912 15.0588 16.1359 15.0593 16.0801C15.0598 16.0243 15.0714 15.9692 15.0934 15.918C15.1154 15.8667 15.1474 15.8204 15.1875 15.7816L15.7818 15.1873C15.8206 15.1472 15.8669 15.1152 15.9182 15.0932C15.9694 15.0712 16.0245 15.0596 16.0803 15.0591C16.1361 15.0586 16.1914 15.0693 16.243 15.0904C16.2946 15.1115 16.3415 15.1427 16.3809 15.1821C16.4204 15.2215 16.4516 15.2684 16.4727 15.3201C16.4938 15.3717 16.5044 15.427 16.5039 15.4828C16.5034 15.5385 16.4919 15.5936 16.4698 15.6449C16.4478 15.6961 16.4158 15.7425 16.3757 15.7812ZM18.1578 13.9995L17.5639 14.5934C17.4852 14.6722 17.3783 14.7165 17.2669 14.7166C17.1555 14.7166 17.0486 14.6724 16.9698 14.5936C16.891 14.5149 16.8467 14.408 16.8467 14.2966C16.8466 14.1852 16.8909 14.0783 16.9696 13.9995L17.5635 13.4056C17.6423 13.3268 17.7491 13.2825 17.8605 13.2825C17.9719 13.2824 18.0788 13.3267 18.1576 13.4054C18.2364 13.4842 18.2807 13.591 18.2808 13.7024C18.2808 13.8138 18.2366 13.9207 18.1578 13.9995ZM19.94 12.2174L19.3461 12.8113C19.3071 12.8503 19.2608 12.8813 19.2098 12.9024C19.1588 12.9235 19.1042 12.9344 19.049 12.9345C18.9939 12.9345 18.9392 12.9236 18.8883 12.9025C18.8373 12.8814 18.791 12.8505 18.7519 12.8115C18.7129 12.7725 18.682 12.7262 18.6608 12.6753C18.6397 12.6243 18.6288 12.5697 18.6288 12.5145C18.6288 12.4593 18.6396 12.4047 18.6607 12.3537C18.6818 12.3027 18.7127 12.2564 18.7517 12.2174L19.3461 11.6235C19.4253 11.547 19.5314 11.5047 19.6415 11.5056C19.7516 11.5066 19.857 11.5507 19.9348 11.6286C20.0127 11.7065 20.0569 11.8118 20.0578 11.922C20.0588 12.0321 20.0165 12.1382 19.94 12.2174ZM21.7221 10.4357L21.1282 11.0296C21.0894 11.0697 21.0431 11.1017 20.9918 11.1237C20.9406 11.1457 20.8855 11.1573 20.8297 11.1578C20.7739 11.1583 20.7186 11.1477 20.667 11.1266C20.6154 11.1054 20.5685 11.0742 20.5291 11.0348C20.4896 10.9954 20.4584 10.9485 20.4373 10.8969C20.4162 10.8452 20.4056 10.7899 20.4061 10.7342C20.4066 10.6784 20.4181 10.6233 20.4402 10.572C20.4622 10.5208 20.4942 10.4744 20.5343 10.4357L21.1278 9.84139C21.207 9.76488 21.3131 9.72254 21.4232 9.7235C21.5333 9.72446 21.6387 9.76863 21.7165 9.8465C21.7944 9.92438 21.8386 10.0297 21.8395 10.1398C21.8405 10.25 21.7982 10.3561 21.7217 10.4353L21.7221 10.4357ZM23.5038 8.05969C23.5825 8.13845 23.6267 8.24527 23.6267 8.35664C23.6267 8.46801 23.5825 8.57482 23.5038 8.65359L22.9099 9.24749C22.8307 9.324 22.7246 9.36633 22.6144 9.36537C22.5043 9.36442 22.399 9.32024 22.3211 9.24237C22.2432 9.1645 22.199 9.05915 22.1981 8.94903C22.1971 8.8389 22.2395 8.7328 22.316 8.65359L22.9099 8.05969C22.9886 7.98108 23.0953 7.93692 23.2066 7.93692C23.3179 7.93692 23.425 7.98108 23.5038 8.05969Z" fill="#9298B4"/>
</svg>
