<svg width="28" height="28" viewBox="0 0 28 28" fill="none" xmlns="http://www.w3.org/2000/svg">
<g clip-path="url(#clip0_75_4929)">
<path d="M4.62661 20.475L6.96823 4.47287C7.00914 4.19414 7.07872 3.92041 7.17608 3.65593L4.88221 3.77235C3.20965 3.8573 1.92279 5.28185 2.00756 6.95441L2.82746 23.1061C2.90926 24.7176 4.23869 25.9828 5.85221 25.9846C5.90458 25.9846 5.95696 25.9833 6.00971 25.9807L12.1858 25.6672L8.04169 25.0607C5.83388 24.735 4.30624 22.6835 4.62661 20.475Z" fill="#9298B4"/>
<path d="M25.4021 5.00312C24.9233 4.35664 24.2056 3.92837 23.4092 3.81399L11.4077 2.05796C9.75072 1.81532 8.21068 2.96207 7.96823 4.61927L5.62661 20.6212C5.40026 22.2741 6.53942 23.8038 8.18792 24.0605L20.1896 25.8167C21.8425 26.0433 23.3722 24.9041 23.6289 23.2554L25.9707 7.2535C26.0893 6.45766 25.8846 5.6472 25.4021 5.00312ZM19.7798 15.5228C18.3447 16.5915 16.3588 17.4982 15.6262 17.8163C15.4508 17.8926 15.2472 17.8628 15.1008 17.7393C14.4902 17.2248 12.8475 15.7871 11.7786 14.352C9.21677 10.9125 13.8023 7.49762 16.364 10.9369C19.8038 8.37563 23.2186 12.9615 19.7785 15.5228H19.7798Z" fill="#9298B4"/>
</g>
<defs>
<clipPath id="clip0_75_4929">
<rect width="24" height="24" fill="white" transform="translate(2 2)"/>
</clipPath>
</defs>
</svg>
