<svg width="28" height="28" viewBox="0 0 28 28" fill="none" xmlns="http://www.w3.org/2000/svg">
<path d="M13.9999 2.23999C7.50506 2.23999 2.23999 7.50506 2.23999 13.9999C2.23999 20.4947 7.50506 25.76 13.9999 25.76C20.4947 25.76 25.76 20.4947 25.76 13.9999C25.7527 7.50807 20.4919 2.24731 13.9999 2.23999ZM13.9999 4.59205C17.8746 4.57892 21.356 6.95661 22.754 10.5701C20.0031 9.33193 17.0165 8.7051 13.9999 8.73245C10.9835 8.7051 7.99687 9.33193 5.24602 10.5701C6.64395 6.95661 10.1254 4.57892 13.9999 4.59205ZM12.0632 23.2064C7.9691 22.3321 4.94089 18.8642 4.62651 14.6896C8.13835 14.6896 12.0632 19.3655 12.0632 23.2064ZM13.9999 15.7639C13.0257 15.7639 12.2359 14.9743 12.2359 13.9999C12.2359 13.0257 13.0257 12.2359 13.9999 12.2359C14.9743 12.2359 15.7639 13.0257 15.7639 13.9999C15.7639 14.9743 14.9743 15.7639 13.9999 15.7639ZM15.9368 23.2064C15.9368 19.3655 19.8616 14.6896 23.3737 14.6896C23.0591 18.8642 20.0309 22.3321 15.9368 23.2064Z" fill="#9298B4"/>
</svg>
