<svg width="28" height="28" viewBox="0 0 28 28" fill="none" xmlns="http://www.w3.org/2000/svg">
<path d="M14 2.23999C7.51582 2.23999 2.23999 7.51582 2.23999 14C2.23999 20.4842 7.51582 25.76 14 25.76C20.4842 25.76 25.76 20.4842 25.76 14C25.76 7.51582 20.4842 2.23999 14 2.23999ZM14.7468 6.06052L17.7705 4.4347C19.4449 5.09767 20.9061 6.184 22.0174 7.5658L21.2971 10.8909L18.9906 12.0214L14.7468 8.92996V6.06052ZM10.2544 4.42588L13.2782 6.05758V8.92996L9.03727 12.0214L6.71908 10.8895L5.99878 7.54375C7.11304 6.16489 8.57716 5.08444 10.2544 4.42588ZM5.51809 19.8124C4.55818 18.4159 3.93343 16.7739 3.76144 14.9996L6.25015 12.2963L8.51983 13.4061L10.2294 18.2615L8.78443 19.9932L5.51809 19.8124ZM16.621 23.9387C15.7816 24.1606 14.907 24.29 14 24.29C12.9034 24.29 11.8479 24.1136 10.8557 23.7946L9.93103 20.9163L11.4054 19.145H16.6004L18.0484 20.859L16.621 23.9387ZM19.195 19.9432L17.7735 18.26L19.5066 13.4061L21.766 12.2992L24.24 15.0011C24.0915 16.5313 23.5991 17.9587 22.8509 19.2214L19.195 19.9432Z" fill="#9298B4"/>
</svg>
