<svg width="28" height="28" viewBox="0 0 28 28" fill="none" xmlns="http://www.w3.org/2000/svg">
<path d="M14 2.23999C7.50512 2.23999 2.23999 7.50512 2.23999 14C2.23999 20.4949 7.50512 25.76 14 25.76C20.4949 25.76 25.76 20.4949 25.76 14C25.7529 7.50808 20.4919 2.24712 14 2.23999ZM23.408 10.472C24.0575 10.472 24.584 10.9985 24.584 11.648C24.584 12.2975 24.0575 12.824 23.408 12.824C22.7585 12.824 22.232 12.2975 22.232 11.648C22.232 10.9985 22.7585 10.472 23.408 10.472ZM4.59199 17.528C3.9425 17.528 3.41599 17.0015 3.41599 16.352C3.41599 15.7025 3.9425 15.176 4.59199 15.176C5.24148 15.176 5.76799 15.7025 5.76799 16.352C5.76799 17.0015 5.24148 17.528 4.59199 17.528ZM4.59199 12.824C3.9425 12.824 3.41599 12.2975 3.41599 11.648C3.41599 10.9985 3.9425 10.472 4.59199 10.472C5.24148 10.472 5.76799 10.9985 5.76799 11.648C5.76799 12.2975 5.24148 12.824 4.59199 12.824ZM9.29599 19.88C8.6465 19.88 8.11999 19.3535 8.11999 18.704C8.11999 18.0545 8.6465 17.528 9.29599 17.528C9.94548 17.528 10.472 18.0545 10.472 18.704C10.472 19.3535 9.94548 19.88 9.29599 19.88ZM9.29599 15.176C8.6465 15.176 8.11999 14.6495 8.11999 14C8.11999 13.3505 8.6465 12.824 9.29599 12.824C9.94548 12.824 10.472 13.3505 10.472 14C10.472 14.6495 9.94548 15.176 9.29599 15.176ZM9.29599 10.472C8.6465 10.472 8.11999 9.94548 8.11999 9.29599C8.11999 8.6465 8.6465 8.11999 9.29599 8.11999C9.94548 8.11999 10.472 8.6465 10.472 9.29599C10.472 9.94548 9.94548 10.472 9.29599 10.472ZM14 22.232C13.3505 22.232 12.824 21.7055 12.824 21.056C12.824 20.4065 13.3505 19.88 14 19.88C14.6495 19.88 15.176 20.4065 15.176 21.056C15.176 21.7055 14.6495 22.232 14 22.232ZM14 17.528C13.3505 17.528 12.824 17.0015 12.824 16.352C12.824 15.7025 13.3505 15.176 14 15.176C14.6495 15.176 15.176 15.7025 15.176 16.352C15.176 17.0015 14.6495 17.528 14 17.528ZM14 12.824C13.3505 12.824 12.824 12.2975 12.824 11.648C12.824 10.9985 13.3505 10.472 14 10.472C14.6495 10.472 15.176 10.9985 15.176 11.648C15.176 12.2975 14.6495 12.824 14 12.824ZM14 8.11999C13.3505 8.11999 12.824 7.59348 12.824 6.94399C12.824 6.2945 13.3505 5.76799 14 5.76799C14.6495 5.76799 15.176 6.2945 15.176 6.94399C15.176 7.59348 14.6495 8.11999 14 8.11999ZM18.704 19.88C18.0545 19.88 17.528 19.3535 17.528 18.704C17.528 18.0545 18.0545 17.528 18.704 17.528C19.3535 17.528 19.88 18.0545 19.88 18.704C19.88 19.3535 19.3535 19.88 18.704 19.88ZM18.704 15.176C18.0545 15.176 17.528 14.6495 17.528 14C17.528 13.3505 18.0545 12.824 18.704 12.824C19.3535 12.824 19.88 13.3505 19.88 14C19.88 14.6495 19.3535 15.176 18.704 15.176ZM18.704 10.472C18.0545 10.472 17.528 9.94548 17.528 9.29599C17.528 8.6465 18.0545 8.11999 18.704 8.11999C19.3535 8.11999 19.88 8.6465 19.88 9.29599C19.88 9.94548 19.3535 10.472 18.704 10.472ZM23.408 17.528C22.7585 17.528 22.232 17.0015 22.232 16.352C22.232 15.7025 22.7585 15.176 23.408 15.176C24.0575 15.176 24.584 15.7025 24.584 16.352C24.584 17.0015 24.0575 17.528 23.408 17.528Z" fill="#9298B4"/>
</svg>
