<svg width="28" height="28" viewBox="0 0 28 28" fill="none" xmlns="http://www.w3.org/2000/svg">
<path d="M22.173 19.3367C21.5745 19.3367 21.0146 19.0422 20.6755 18.5489L19.7862 17.2554C18.7386 19.1337 16.7472 20.3463 14.5 20.3463C11.3643 20.3463 8.77736 17.9511 8.47237 14.8944H9.0481C9.27303 14.8944 9.47951 14.7697 9.58422 14.5706C9.68893 14.3715 9.6747 14.1308 9.54726 13.9454L8.6642 12.661L7.32611 10.7146C7.21315 10.5503 7.02645 10.452 6.82695 10.452C6.80201 10.452 6.77728 10.4535 6.75283 10.4565C6.72839 10.4595 6.70431 10.464 6.68064 10.4699C6.6215 10.4846 6.56506 10.5081 6.51326 10.5395C6.44075 10.5834 6.37717 10.6427 6.32775 10.7146L4.10659 13.9454C3.97915 14.1307 3.96492 14.3715 4.06964 14.5706C4.17435 14.7696 4.38082 14.8944 4.60579 14.8944H5.23087C5.375 17.1474 6.32135 19.2458 7.93211 20.8566C9.68647 22.6109 12.019 23.5771 14.5 23.5771C16.981 23.5771 19.3136 22.6109 21.0679 20.8566C21.5343 20.3902 21.9473 19.8786 22.3019 19.3317C22.2591 19.3347 22.2162 19.3367 22.173 19.3367Z" fill="#9298B4"/>
<path d="M14.9615 13.6827H14.0384C13.8634 13.6827 13.7211 13.5404 13.7211 13.3654V12.9039C13.7211 12.729 13.8634 12.5866 14.0384 12.5866H14.9615C15.1364 12.5866 15.2787 12.729 15.2787 12.9039C15.2787 13.2385 15.55 13.5097 15.8845 13.5097C16.219 13.5097 16.4903 13.2384 16.4903 12.9039C16.4903 12.1096 15.8813 11.455 15.1056 11.3821V11.0578C15.1056 10.7232 14.8344 10.452 14.4999 10.452C14.1653 10.452 13.8941 10.7233 13.8941 11.0578V11.3821C13.1185 11.455 12.5095 12.1096 12.5095 12.9039V13.3654C12.5095 14.2085 13.1953 14.8943 14.0383 14.8943H14.9614C15.1363 14.8943 15.2787 15.0366 15.2787 15.2116V15.6731C15.2787 15.8481 15.1363 15.9904 14.9614 15.9904H14.0383C13.8633 15.9904 13.721 15.8481 13.721 15.6732C13.721 15.3386 13.4498 15.0674 13.1153 15.0674C12.7807 15.0674 12.5095 15.3387 12.5095 15.6732C12.5095 16.4675 13.1185 17.1221 13.8941 17.195V17.5193C13.8941 17.8538 14.1654 18.125 14.4999 18.125C14.8345 18.125 15.1057 17.8538 15.1057 17.5193V17.1949C15.8812 17.122 16.4903 16.4675 16.4903 15.6731V15.2116C16.4903 14.3686 15.8045 13.6827 14.9615 13.6827Z" fill="#9298B4"/>
<path d="M24.9303 14.0064C24.8255 13.8074 24.6191 13.6827 24.3941 13.6827H23.769C23.6249 11.4296 22.6785 9.33128 21.0678 7.72048C19.3135 5.96616 16.9809 5 14.4999 5C12.0189 5 9.68633 5.96616 7.93201 7.72052C7.46562 8.18691 7.05264 8.69854 6.69806 9.2454C6.74076 9.24236 6.78366 9.24039 6.82685 9.24039C7.42547 9.24039 7.98529 9.53489 8.32437 10.0281L9.21367 11.3217C10.2612 9.44338 12.2527 8.2308 14.4999 8.2308C17.6356 8.2308 20.2225 10.6259 20.5275 13.6827H19.9518C19.7269 13.6827 19.5204 13.8074 19.4157 14.0065C19.311 14.2056 19.3252 14.4463 19.4526 14.6317L20.3357 15.9161L21.6738 17.8625C21.702 17.9036 21.7349 17.9405 21.7714 17.9729C21.8809 18.0698 22.0234 18.1251 22.173 18.1251C22.3724 18.1251 22.5592 18.0268 22.6722 17.8625L23.4742 16.6959L24.8933 14.6317C25.0208 14.4463 25.035 14.2055 24.9303 14.0064Z" fill="#9298B4"/>
</svg>
