<svg width="28" height="28" viewBox="0 0 28 28" fill="none" xmlns="http://www.w3.org/2000/svg">
<path d="M14.3671 9.21214C15.7487 9.21214 16.8707 8.09017 16.8707 6.70853C16.8707 5.32688 15.7487 4.20001 14.3671 4.20001C12.9854 4.20001 11.8635 5.32688 11.8635 6.70853C11.8635 8.09017 12.9854 9.21214 14.3671 9.21214Z" fill="#9298B4"/>
<path d="M5.53826 10.0401C4.86214 10.6869 4.56327 11.6226 4.74455 12.5388C4.92093 13.4452 5.53826 14.1949 6.39566 14.5378L9.69299 15.8656L8.77189 19.7263C8.64941 20.2261 8.92868 20.7356 9.41372 20.9022C9.52151 20.9414 9.6293 20.9561 9.74198 20.9561C10.1339 20.9561 10.5063 20.7209 10.6631 20.3388L12.422 16.0811C12.8335 15.0768 12.422 13.9352 11.4568 13.4256L9.29613 12.289C9.68809 11.8529 10.1731 11.5051 10.7709 11.2356L11.0893 12.6074C11.2461 13.2787 11.8536 13.7245 12.5396 13.6706L15.7242 13.4256C16.2386 13.3815 16.6404 12.9504 16.6404 12.436C16.6404 11.9166 16.2533 11.4904 15.734 11.4463L13.152 11.2258C13.152 11.2258 13.1471 11.2258 13.1471 11.2209L13.0393 9.92744C11.932 9.47179 11.104 8.45271 10.9276 7.22784C9.04136 7.47282 7.22857 8.41841 5.53826 10.0401Z" fill="#9298B4"/>
<path d="M2.31936 14.3909C2.23117 14.5232 2.21647 14.6946 2.27527 14.8416C3.63241 18.2075 6.12133 23.837 7.61566 23.837H7.63036C7.66466 23.837 7.69895 23.8321 7.73325 23.8223L11.6577 22.862C14.47 22.1712 16.8315 20.3976 18.1495 17.9969C19.0265 16.3849 20.2415 15.5226 20.6825 15.2483L23.6074 16.2625C24.2003 16.4731 24.9107 16.2968 25.337 15.8264C25.626 15.5079 25.7779 15.0964 25.7583 14.6603C25.7338 14.2243 25.5427 13.8225 25.2194 13.5335L22.0984 10.7261L22.2601 8.98678C22.2797 8.8055 22.1915 8.62912 22.0347 8.53114C21.8828 8.42825 21.6869 8.42825 21.5252 8.51644C20.5747 9.07008 20.1288 10.0108 19.9476 10.5105C19.0804 10.6526 18.1985 10.9417 17.3117 11.363C17.5076 11.6717 17.6203 12.0391 17.6203 12.436C17.6203 13.4502 16.8266 14.3125 15.8075 14.4007L13.4803 14.5819C13.6224 15.1846 13.5832 15.8362 13.3284 16.4535L11.5695 20.7112C11.2657 21.4559 10.5455 21.936 9.74202 21.936C9.50685 21.936 9.28637 21.8968 9.08059 21.8233C8.1252 21.4951 7.57647 20.4907 7.82144 19.4912L8.54166 16.4584L6.02824 15.4492C5.34722 15.1748 4.77398 14.7142 4.37223 14.1263L2.71622 14.1704C2.55943 14.1753 2.40755 14.2537 2.31936 14.3909Z" fill="#9298B4"/>
</svg>
