<svg width="28" height="28" viewBox="0 0 28 28" fill="none" xmlns="http://www.w3.org/2000/svg">
<path d="M18.0404 14.7527C17.8446 14.7366 17.6504 14.7988 17.5003 14.9257C17.3503 15.0526 17.2568 15.2338 17.2402 15.4295C17.1746 16.2036 17.0933 16.8769 17.0222 17.2307V17.235C16.8125 18.3168 15.7877 19.3861 14.7368 19.6212C14.6458 19.6399 14.5544 19.6579 14.4634 19.6751C14.5415 18.6702 14.5997 17.3854 14.5919 16.3946C14.6036 14.8808 14.4587 12.5501 14.3303 11.6226C14.0994 9.91475 13.0493 8.02063 11.8874 7.21573L11.8804 7.21104C11.0726 6.66531 10.2068 6.21068 9.29894 5.85548C9.137 5.79274 8.97701 5.73416 8.81897 5.67974C9.68081 5.54649 10.5518 5.4812 11.4239 5.48447C12.6111 5.48447 13.6948 5.59265 14.7368 5.80901C15.7877 6.04333 16.8125 7.11341 17.0222 8.1952V8.1995C17.0929 8.55098 17.1742 9.22427 17.2398 9.99598C17.2564 10.1921 17.3504 10.3736 17.5008 10.5005C17.6513 10.6273 17.846 10.6893 18.0421 10.6726C18.2383 10.6559 18.4197 10.562 18.5466 10.4115C18.6735 10.2611 18.7354 10.0663 18.7187 9.87022C18.6477 9.03486 18.5602 8.32057 18.4782 7.90972C18.1544 6.24563 16.6817 4.71902 15.0524 4.35816L15.043 4.35621C13.8979 4.11876 12.7146 4.00238 11.4211 4.00003C10.1277 3.99769 8.94902 4.1172 7.80396 4.3566L7.7942 4.35855C7.06701 4.51984 6.37146 4.9135 5.79503 5.44737C5.63924 5.56484 5.50307 5.70628 5.3916 5.86642C4.88234 6.46082 4.5125 7.17199 4.36878 7.90972C4.18874 8.81225 3.98527 11.1528 4.00089 12.7149C3.9923 13.553 4.04659 14.6153 4.12704 15.5592C4.17 16.1645 4.21881 16.6918 4.26568 17.03C4.49649 18.7378 5.54665 20.6319 6.70889 21.4368L6.71553 21.4415C7.52354 21.9872 8.38942 22.4418 9.29738 22.7971C10.2167 23.154 11.0603 23.3704 11.8769 23.4586H11.8839C12.9813 23.5567 13.9788 22.6041 14.2807 21.2115C14.5361 21.1709 14.7893 21.1246 15.0403 21.0728L15.0496 21.0709C16.6793 20.71 18.1517 19.1834 18.4754 17.5193C18.5574 17.1077 18.6453 16.3918 18.7164 15.5545C18.733 15.3586 18.6711 15.1641 18.5443 15.0137C18.4175 14.8634 18.2363 14.7695 18.0404 14.7527Z" fill="#9298B4"/>
<path d="M24.0002 12.7139C24.0002 12.6893 24.0002 12.6647 23.9963 12.6401C23.9964 12.6385 23.9964 12.6369 23.9963 12.6354C23.9939 12.6123 23.9904 12.5894 23.9857 12.5666V12.5616C23.9564 12.4205 23.8865 12.2912 23.7846 12.1894L21.1289 9.53138C20.9898 9.39217 20.801 9.31394 20.6042 9.3139C20.4073 9.31387 20.2186 9.39202 20.0793 9.53118C19.9401 9.67034 19.8619 9.85909 19.8619 10.0559C19.8618 10.2528 19.94 10.4415 20.0792 10.5808L21.4722 11.9734H16.3495C16.1527 11.9734 15.964 12.0516 15.8248 12.1907C15.6857 12.3299 15.6075 12.5186 15.6075 12.7154C15.6075 12.9122 15.6857 13.101 15.8248 13.2401C15.964 13.3793 16.1527 13.4575 16.3495 13.4575H21.4656L20.0737 14.8493C19.935 14.9886 19.8572 15.1772 19.8574 15.3737C19.8576 15.5702 19.9358 15.7587 20.0748 15.8976C20.2137 16.0366 20.4022 16.1148 20.5987 16.115C20.7952 16.1152 20.9838 16.0374 21.1231 15.8987L23.7666 13.2552C23.8625 13.1654 23.9326 13.0516 23.9697 12.9255C23.9764 12.9031 23.9819 12.8803 23.9861 12.8572C23.9863 12.854 23.9863 12.8507 23.9861 12.8474C23.9896 12.8275 23.9931 12.8084 23.9951 12.7873C23.997 12.7662 23.9951 12.7568 23.9951 12.742C23.9951 12.7334 23.9951 12.7248 23.9951 12.7162L24.0002 12.7139Z" fill="#9298B4"/>
</svg>
