<svg width="28" height="28" viewBox="0 0 28 28" fill="none" xmlns="http://www.w3.org/2000/svg">
<path d="M5.464 22.424C5.48 22.444 5.496 22.464 5.516 22.484C5.532 22.5 5.552 22.516 5.572 22.528C5.572 22.528 5.576 22.536 5.58 22.536C7.732 24.66 10.672 25.976 13.92 25.992C13.932 25.996 13.944 25.996 13.96 25.996C13.972 26 13.988 26 14 26C14.012 26 14.028 26 14.04 25.996C14.056 25.996 14.068 25.996 14.08 25.992C17.344 25.976 20.3 24.644 22.452 22.508C22.464 22.5 22.472 22.492 22.48 22.484C22.5 22.464 22.516 22.444 22.532 22.424C24.68 20.256 26 17.28 26 14V13.996C26 10.716 24.676 7.74 22.532 5.576C22.516 5.556 22.5 5.536 22.48 5.52C22.476 5.512 22.468 5.504 22.46 5.5C22.46 5.49733 22.4587 5.496 22.456 5.496C20.288 3.336 17.296 2 14 2C10.704 2 7.748 3.32 5.58 5.46C5.58 5.46 5.58 5.464 5.576 5.464C5.556 5.48 5.536 5.496 5.516 5.516C5.496 5.536 5.48 5.556 5.464 5.576C5.464 5.58 5.46 5.58 5.46 5.58C3.32 7.744 2 10.72 2 13.996V14C2 17.28 3.32 20.252 5.46 22.42C5.46 22.42 5.464 22.42 5.464 22.424ZM14.4 25.184V22.424C16.372 22.336 18.22 21.572 19.676 20.248L21.624 22.192C19.716 23.972 17.184 25.092 14.4 25.184ZM22.192 6.372C23.972 8.28 25.092 10.812 25.188 13.596H22.42C22.332 11.624 21.568 9.776 20.244 8.32L22.192 6.372ZM13.6 2.808V5.572C11.632 5.664 9.784 6.428 8.32 7.756L6.372 5.808C8.28 4.028 10.812 2.904 13.6 2.808ZM8.596 8.6C10.036 7.168 11.94 6.376 13.96 6.364H13.968C13.98 6.368 13.988 6.368 14 6.368C14.012 6.368 14.02 6.368 14.032 6.364H14.04C16.056 6.376 17.952 7.16 19.38 8.58L19.384 8.584C19.388 8.588 19.396 8.596 19.4 8.6C19.404 8.604 19.412 8.612 19.412 8.616C20.844 10.052 21.632 11.964 21.632 13.996C21.632 16.028 20.84 17.956 19.4 19.4L19.396 19.404C17.964 20.832 16.064 21.624 14.04 21.636H14.032C14.02 21.632 14.012 21.632 14 21.632C13.988 21.632 13.98 21.632 13.968 21.636H13.96C11.94 21.624 10.036 20.832 8.596 19.4C7.156 17.956 6.364 16.036 6.364 13.996C6.364 11.956 7.156 10.04 8.596 8.6ZM5.576 14.396C5.664 16.368 6.428 18.216 7.756 19.68L5.808 21.628C4.028 19.72 2.904 17.188 2.812 14.396H5.576Z" fill="#9298B4"/>
<path d="M12.2041 17.3321C12.5561 17.3321 12.9081 17.2721 13.2401 17.1481L12.5721 18.9721C12.5281 19.0961 12.5441 19.2321 12.6201 19.3401C12.6961 19.4441 12.8161 19.5081 12.9481 19.5081H15.0521C15.1841 19.5081 15.3081 19.4441 15.3801 19.3401C15.4561 19.2321 15.4721 19.0961 15.4281 18.9721L14.7601 17.1481C15.8241 17.5401 17.0681 17.3081 17.9121 16.4601C19.0601 15.3161 19.0761 13.4361 17.9441 12.2681L14.2841 8.60814C14.1321 8.45614 13.8681 8.45614 13.7161 8.60814L10.0601 12.2681C10.0574 12.2681 10.0548 12.2695 10.0521 12.2721C9.5121 12.8321 9.2121 13.5721 9.2121 14.3481C9.2161 15.1481 9.5241 15.9001 10.0881 16.4601C10.6681 17.0401 11.4361 17.3321 12.2041 17.3321Z" fill="#9298B4"/>
</svg>
