<svg width="28" height="28" viewBox="0 0 28 28" fill="none" xmlns="http://www.w3.org/2000/svg">
<path d="M4.14917 13.7457H7.4325V20.8596H4.14917V13.7457Z" fill="#9298B4"/>
<path d="M9.62115 13.7457H12.9045V20.8596H9.62115V13.7457Z" fill="#9298B4"/>
<path d="M15.0937 13.7457H18.377V20.8596H15.0937V13.7457Z" fill="#9298B4"/>
<path d="M20.5662 13.7457H23.8496V20.8596H20.5662V13.7457Z" fill="#9298B4"/>
<path d="M3.60089 11.0095V12.1039C3.60089 12.249 3.65854 12.3882 3.76117 12.4909C3.86379 12.5935 4.00298 12.6511 4.14811 12.6511H7.43145C7.57658 12.6511 7.71577 12.5935 7.81839 12.4909C7.92102 12.3882 7.97867 12.249 7.97867 12.1039V11.0095H3.60089Z" fill="#9298B4"/>
<path d="M9.07343 11.0095V12.1039C9.07343 12.249 9.13108 12.3882 9.2337 12.4909C9.33633 12.5935 9.47552 12.6511 9.62065 12.6511H12.904C13.0491 12.6511 13.1883 12.5935 13.2909 12.4909C13.3936 12.3882 13.4512 12.249 13.4512 12.1039V11.0095H9.07343Z" fill="#9298B4"/>
<path d="M14.5454 11.0095V12.1039C14.5454 12.249 14.6031 12.3882 14.7057 12.4909C14.8083 12.5935 14.9475 12.6511 15.0926 12.6511H18.376C18.5211 12.6511 18.6603 12.5935 18.7629 12.4909C18.8655 12.3882 18.9232 12.249 18.9232 12.1039V11.0095H14.5454Z" fill="#9298B4"/>
<path d="M20.0179 11.0095V12.1039C20.0179 12.249 20.0756 12.3882 20.1782 12.4909C20.2808 12.5935 20.42 12.6511 20.5652 12.6511H23.8485C23.9936 12.6511 24.1328 12.5935 24.2354 12.4909C24.3381 12.3882 24.3957 12.249 24.3957 12.1039V11.0095H20.0179Z" fill="#9298B4"/>
<path d="M24.396 21.9166H3.60159C2.99714 21.9166 2.50714 22.4066 2.50714 23.011V24.1055C2.50714 24.7099 2.99714 25.1999 3.60159 25.1999H24.396C25.0005 25.1999 25.4905 24.7099 25.4905 24.1055V23.011C25.4905 22.4066 25.0005 21.9166 24.396 21.9166Z" fill="#9298B4"/>
<path d="M25.2876 6.50578L14.2758 2.85581C14.0511 2.78138 13.8083 2.78138 13.5836 2.85581L2.70589 6.50578C2.48864 6.57877 2.2998 6.71812 2.16598 6.90417C2.03216 7.09022 1.96012 7.31359 1.96002 7.54277V8.82053C1.96002 9.1108 2.07533 9.38917 2.28058 9.59442C2.48583 9.79967 2.7642 9.91498 3.05447 9.91498H24.9434C25.2336 9.91498 25.512 9.79967 25.7173 9.59442C25.9225 9.38917 26.0378 9.1108 26.0378 8.82053V7.54441C26.0377 7.31441 25.9652 7.09028 25.8306 6.90383C25.6959 6.71739 25.5059 6.57811 25.2876 6.50578Z" fill="#9298B4"/>
</svg>
