<svg width="28" height="28" viewBox="0 0 28 28" fill="none" xmlns="http://www.w3.org/2000/svg">
<path d="M13.9525 4C11.0954 4 8.75977 6.33559 8.75977 9.19275C8.75977 12.0499 11.0954 14.3855 13.9525 14.3855C16.8097 14.3855 19.1453 12.0499 19.1453 9.19275C19.1453 6.33559 16.8097 4 13.9525 4Z" fill="#9298B4"/>
<path d="M22.8642 18.5353C22.7281 18.1951 22.5467 17.8777 22.3426 17.5829C21.2995 16.0409 19.6896 15.0205 17.8755 14.7711C17.6488 14.7484 17.3994 14.7937 17.2179 14.9298C16.2656 15.6328 15.1318 15.9956 13.9526 15.9956C12.7735 15.9956 11.6397 15.6328 10.6873 14.9298C10.5059 14.7937 10.2564 14.7257 10.0297 14.7711C8.21564 15.0205 6.583 16.0409 5.5626 17.5829C5.35852 17.8777 5.1771 18.2178 5.04107 18.5353C4.97306 18.6713 4.99572 18.8301 5.06373 18.9661C5.24515 19.2836 5.47189 19.6011 5.67597 19.8732C5.99341 20.304 6.33356 20.6895 6.71907 21.0523C7.03651 21.3697 7.39932 21.6645 7.76217 21.9593C9.55353 23.2972 11.7077 24.0001 13.93 24.0001C16.1522 24.0001 18.3064 23.2972 20.0978 21.9593C20.4606 21.6872 20.8234 21.3697 21.1409 21.0523C21.5037 20.6895 21.8665 20.304 22.184 19.8732C22.4107 19.5784 22.6148 19.2836 22.7962 18.9661C22.9095 18.8301 22.9322 18.6713 22.8642 18.5353Z" fill="#9298B4"/>
</svg>
