<svg width="28" height="28" viewBox="0 0 28 28" fill="none" xmlns="http://www.w3.org/2000/svg">
<path d="M22.0777 12.2991C22.0226 9.42798 21.6226 7.31038 21.6281 7.30843C21.4617 6.98382 21.1699 6.71233 20.8128 6.57366C18.4691 5.66466 16.1644 4.79708 13.9175 4.05684C13.6878 3.98105 13.4456 3.98105 13.2163 4.05684C10.9698 4.79512 8.66545 5.66115 6.32207 6.56897C6.00684 6.69124 5.74238 6.91741 5.57011 7.19241C5.58339 7.19398 5.08847 8.73891 5.00409 12.1511C4.95409 15.5636 5.3791 16.5859 5.36503 16.587C5.59511 17.337 6.02559 18.0999 6.64239 18.8757C7.33185 19.7421 8.2635 20.6371 9.3889 21.5168C11.2518 22.9789 12.9952 23.8527 13.0682 23.8836C13.2264 23.9609 13.394 24.0004 13.5667 24C13.7397 24 13.9073 23.9605 14.0651 23.8828C14.1386 23.8519 15.8839 22.9754 17.746 21.5136C18.8718 20.6332 19.8035 19.7382 20.4933 18.8722C21.1542 18.0413 21.6011 17.2261 21.8171 16.4253C21.8085 16.4241 22.1211 15.171 22.0777 12.2995V12.2991ZM14.494 14.5386V16.3577C14.494 16.8702 14.0788 17.2855 13.5663 17.2859C13.0538 17.2859 12.6381 16.8706 12.6381 16.3581V14.5644C11.9694 14.2319 11.5092 13.5421 11.5092 12.7448C11.5092 11.6229 12.4186 10.7132 13.5405 10.7132C14.6624 10.7132 15.5718 11.6225 15.5722 12.7444C15.5722 13.5218 15.1354 14.1972 14.494 14.5386Z" fill="#9298B4"/>
</svg>
