<svg width="28" height="28" viewBox="0 0 28 28" fill="none" xmlns="http://www.w3.org/2000/svg">
<path d="M22.4853 5.51469C20.2188 3.24823 17.2053 2 14 2C10.7947 2 7.78123 3.24823 5.51469 5.51469C3.24823 7.78123 2 10.7947 2 14C2 17.2053 3.24823 20.2188 5.51469 22.4853C7.78123 24.7518 10.7947 26 14 26C17.2053 26 20.2188 24.7518 22.4853 22.4853C24.7518 20.2188 26 17.2053 26 14C26 10.7947 24.7518 7.78123 22.4853 5.51469ZM14.7031 3.43016C16.1209 3.52353 17.4633 3.89689 18.6755 4.49563L17.971 5.71578C16.9685 5.23339 15.8658 4.92758 14.7031 4.83917V3.43016ZM4.49563 18.6755C3.89689 17.4633 3.52353 16.1209 3.43016 14.7031H4.83917C4.92758 15.8658 5.23339 16.9685 5.71583 17.971L4.49563 18.6755ZM6.4213 8.81253L5.20039 8.10767C5.9712 6.96027 6.96022 5.97125 8.10763 5.20044L8.81253 6.42134C7.87611 7.06433 7.06433 7.87606 6.4213 8.81253ZM13.2969 24.5698C11.8791 24.4765 10.5367 24.1031 9.32455 23.5044L10.029 22.2842C11.0315 22.7667 12.1342 23.0724 13.2969 23.1608V24.5698ZM17.7511 14.7031H14.7031V17.7511C15.1233 17.9943 15.4062 18.4483 15.4062 18.9688C15.4062 19.7454 14.7767 20.375 14 20.375C13.2233 20.375 12.5938 19.7454 12.5938 18.9688C12.5938 18.4483 12.8767 17.9943 13.2969 17.7511V14.7031H10.2489C10.0057 15.1234 9.5517 15.4062 9.03125 15.4062C8.25458 15.4062 7.625 14.7766 7.625 14C7.625 13.2234 8.25458 12.5938 9.03125 12.5938C9.55166 12.5938 10.0057 12.8766 10.2489 13.2969H13.2969V10.2489C12.8767 10.0057 12.5938 9.5517 12.5938 9.03125C12.5938 8.25462 13.2233 7.625 14 7.625C14.7767 7.625 15.4062 8.25462 15.4062 9.03125C15.4062 9.5517 15.1233 10.0057 14.7031 10.2489V13.2969H17.7511C17.9943 12.8766 18.4483 12.5938 18.9688 12.5938C19.7454 12.5938 20.375 13.2234 20.375 14C20.375 14.7766 19.7454 15.4062 18.9688 15.4062C18.4483 15.4062 17.9943 15.1234 17.7511 14.7031ZM19.8923 22.7996L19.1874 21.5787C20.1239 20.9357 20.9357 20.1239 21.5787 19.1875L22.7996 19.8923C22.0287 21.0397 21.0397 22.0287 19.8923 22.7996ZM22.2842 10.029L23.5044 9.32455C24.1031 10.5367 24.4765 11.8791 24.5698 13.2969H23.1608C23.0724 12.1342 22.7666 11.0315 22.2842 10.029Z" fill="#9298B4"/>
</svg>
