<svg width="28" height="28" viewBox="0 0 28 28" fill="none" xmlns="http://www.w3.org/2000/svg">
<mask id="mask0_75_4940" style="mask-type:luminance" maskUnits="userSpaceOnUse" x="2" y="2" width="24" height="24">
<path d="M26 2H2V26H26V2Z" fill="white"/>
<path d="M15.9219 17.8438C15.9219 17.8438 14 15.4657 14 14.4219C14 15.4657 12.0781 17.8438 12.0781 17.8438H15.9219Z" fill="white"/>
<path d="M14 14.5998C14 14.5998 14.2538 16.2031 15.7812 16.2031C16.6873 16.2031 17.2812 15.7066 17.2812 14.4687C17.2812 12.7896 14 10.1094 14 10.1094C14 10.1094 10.7188 12.7896 10.7188 14.4687C10.7188 15.7066 11.3127 16.2031 12.2187 16.2031C13.7462 16.2031 14 14.5998 14 14.5998Z" fill="white"/>
</mask>
<g mask="url(#mask0_75_4940)">
<mask id="mask1_75_4940" style="mask-type:luminance" maskUnits="userSpaceOnUse" x="2" y="2" width="24" height="24">
<path d="M2 2H26V26H2V2Z" fill="white"/>
</mask>
<g mask="url(#mask1_75_4940)">
<path d="M15.9219 17.8437C15.9219 17.8437 14 15.4657 14 14.4218C14 15.4657 12.0781 17.8437 12.0781 17.8437H15.9219Z" fill="#9298B4"/>
<path d="M14 14.5998C14 14.5998 14.2538 16.2031 15.7812 16.2031C16.6873 16.2031 17.2812 15.7065 17.2812 14.4687C17.2812 12.7896 14 10.1093 14 10.1093C14 10.1093 10.7188 12.7896 10.7188 14.4687C10.7188 15.7065 11.3127 16.2031 12.2187 16.2031C13.7462 16.2031 14 14.5998 14 14.5998Z" fill="#9298B4"/>
<path fillRule="evenodd" clipRule="evenodd" d="M2 14C2 20.6274 7.37259 26 14 26C20.6274 26 26 20.6274 26 14C26 7.37256 20.6274 1.99997 14 1.99997C7.37259 1.99997 2 7.37256 2 14ZM14 24.125C8.40813 24.125 3.875 19.5918 3.875 14C3.875 8.4081 8.40813 3.87497 14 3.87497C19.5919 3.87497 24.125 8.4081 24.125 14C24.125 19.5918 19.5919 24.125 14 24.125Z" fill="#9298B4"/>
<path fillRule="evenodd" clipRule="evenodd" d="M5.98438 14C5.98438 18.4269 9.57309 22.0156 14 22.0156C18.4269 22.0156 22.0156 18.4269 22.0156 14C22.0156 9.57305 18.4269 5.98433 14 5.98433C9.57309 5.98433 5.98438 9.57305 5.98438 14ZM14 20.1406C10.6086 20.1406 7.85937 17.3913 7.85937 14C7.85937 10.6086 10.6086 7.85933 14 7.85933C17.3914 7.85933 20.1406 10.6086 20.1406 14C20.1406 17.3913 17.3914 20.1406 14 20.1406Z" fill="#9298B4"/>
<path fillRule="evenodd" clipRule="evenodd" d="M14.9375 25.0625V21.125H13.0625V25.0625H14.9375Z" fill="#9298B4"/>
<path fillRule="evenodd" clipRule="evenodd" d="M14.9375 6.92184V2.93747H13.0625V6.92184H14.9375Z" fill="#9298B4"/>
<path fillRule="evenodd" clipRule="evenodd" d="M25.0625 13.0625H21.125V14.9375H25.0625V13.0625Z" fill="#9298B4"/>
<path fillRule="evenodd" clipRule="evenodd" d="M6.92187 13.0625H2.9375V14.9375H6.92187V13.0625Z" fill="#9298B4"/>
<path fillRule="evenodd" clipRule="evenodd" d="M22.4853 21.1594L19.7011 18.3752L18.3752 19.701L21.1595 22.4852L22.4853 21.1594Z" fill="#9298B4"/>
<path fillRule="evenodd" clipRule="evenodd" d="M9.65791 8.33206L6.84053 5.51468L5.51471 6.84051L8.33208 9.65788L9.65791 8.33206Z" fill="#9298B4"/>
<path fillRule="evenodd" clipRule="evenodd" d="M6.84053 22.4852L9.62477 19.701L8.29894 18.3752L5.51471 21.1594L6.84053 22.4852Z" fill="#9298B4"/>
<path fillRule="evenodd" clipRule="evenodd" d="M19.6682 9.65784L22.4856 6.84046L21.1598 5.51464L18.3424 8.33201L19.6682 9.65784Z" fill="#9298B4"/>
</g>
</g>
</svg>
