<svg width="28" height="28" viewBox="0 0 28 28" fill="none" xmlns="http://www.w3.org/2000/svg">
<path d="M21.5745 11.8789C21.5745 7.52509 18.0473 4 13.6956 4C9.34436 4 5.81818 7.52509 5.81818 11.8789C4.81455 11.8789 4 12.6931 4 13.6971V19.7575C4 20.7615 4.81455 21.5756 5.81818 21.5756H9.45454C9.78836 21.5756 10.0593 21.3047 10.0593 20.9698V16.7273C10.0593 16.0607 9.81673 15.0273 9.51855 14.4309L8.24255 11.8789C8.24255 8.86509 10.6822 6.42436 13.696 6.42436C16.7073 6.42436 19.1505 8.86509 19.1505 11.8789L17.8745 14.4309C17.5764 15.0276 17.3324 16.0607 17.3324 16.7273V21.1095C16.2549 21.8018 15.0073 22.1818 13.6956 22.1818H12.4836V24H13.6956C16.0171 24 18.1182 23.0731 19.6615 21.5756H21.5745C22.5785 21.5756 23.3927 20.7615 23.3927 19.7575V13.6971C23.3927 12.6931 22.5785 11.8789 21.5745 11.8789Z" fill="#9298B4"/>
</svg>
