<svg width="28" height="28" viewBox="0 0 28 28" fill="none" xmlns="http://www.w3.org/2000/svg">
<path d="M10.7987 12.3278L10.2046 11.7331L7.28392 8.82158C7.1433 8.68143 6.95287 8.60273 6.75434 8.60273C6.55581 8.60273 6.36537 8.68143 6.22476 8.82158L3.31118 11.726L2.71246 12.3227C2.28893 12.7466 2.03657 13.3118 2.00367 13.9101C1.97078 14.5084 2.15965 15.0978 2.53416 15.5656C2.90867 16.0333 3.44251 16.3466 4.03352 16.4453C4.62453 16.5441 5.23121 16.4215 5.73747 16.101L5.4062 17.886C5.39058 17.97 5.39366 18.0565 5.41524 18.1392C5.43682 18.222 5.47636 18.2989 5.53105 18.3646C5.58575 18.4304 5.65425 18.4832 5.73168 18.5195C5.80912 18.5557 5.89359 18.5745 5.97909 18.5744H7.53111C7.61658 18.5744 7.701 18.5556 7.7784 18.5193C7.85579 18.483 7.92425 18.4302 7.97892 18.3645C8.0336 18.2988 8.07314 18.2218 8.09476 18.1392C8.11637 18.0565 8.11953 17.97 8.10399 17.886L7.77323 16.0908C8.24086 16.387 8.79524 16.5154 9.34545 16.455C9.89565 16.3946 10.409 16.149 10.8013 15.7585C11.0269 15.5334 11.2058 15.2659 11.3278 14.9715C11.4498 14.677 11.5125 14.3614 11.5123 14.0426C11.512 13.7239 11.4489 13.4084 11.3264 13.1141C11.204 12.8198 11.0247 12.5526 10.7987 12.3278Z" fill="#9298B4"/>
<path d="M10.3657 2.71228C10.824 2.2561 11.4443 2 12.0909 2C12.7376 2 13.3579 2.2561 13.8162 2.71228L14.4144 3.30847L15.0091 2.71583C15.4664 2.26014 16.0857 2.00428 16.7313 2.00428C17.3769 2.00428 17.9962 2.26014 18.4535 2.71583C18.6795 2.94084 18.8588 3.20828 18.9812 3.50278C19.1035 3.79728 19.1665 4.11305 19.1665 4.43196C19.1665 4.75087 19.1035 5.06664 18.9812 5.36114C18.8588 5.65564 18.6795 5.92308 18.4535 6.14809L17.8588 6.74124L14.9382 9.65279C14.7974 9.7927 14.607 9.87122 14.4086 9.87122C14.2101 9.87122 14.0197 9.7927 13.879 9.65279L10.9644 6.74833L10.3657 6.15164C10.1392 5.92619 9.95943 5.65821 9.83678 5.3631C9.71414 5.06798 9.651 4.75155 9.651 4.43196C9.651 4.11238 9.71414 3.79594 9.83678 3.50082C9.95943 3.20571 10.1392 2.93773 10.3657 2.71228Z" fill="#9298B4"/>
<path d="M18.9533 21.615C19.0179 21.5769 19.0715 21.5227 19.1087 21.4576C19.1459 21.3925 19.1654 21.3189 19.1654 21.2439C19.1654 21.169 19.1459 21.0953 19.1087 21.0302C19.0715 20.9651 19.0179 20.9109 18.9533 20.8729C17.2298 19.8582 15.7932 18.4213 14.779 16.6975C14.7408 16.6332 14.6866 16.5799 14.6216 16.5428C14.5565 16.5058 14.483 16.4863 14.4082 16.4863C14.3334 16.4863 14.2599 16.5058 14.1948 16.5428C14.1298 16.5799 14.0756 16.6332 14.0374 16.6975C13.0167 18.4164 11.5813 19.852 9.86258 20.8729C9.7981 20.9109 9.74466 20.9652 9.70753 21.0302C9.67041 21.0952 9.65088 21.1688 9.65088 21.2437C9.65088 21.3185 9.67041 21.3921 9.70753 21.4571C9.74466 21.5222 9.7981 21.5764 9.86258 21.6144C11.5867 22.6279 13.0238 24.0645 14.0379 25.7883C14.076 25.8529 14.1302 25.9064 14.1953 25.9436C14.2603 25.9808 14.334 26.0004 14.409 26.0004C14.4839 26.0004 14.5576 25.9808 14.6227 25.9436C14.6877 25.9064 14.742 25.8529 14.78 25.7883C15.7961 24.0673 17.2315 22.6317 18.9523 21.6155L18.9533 21.615Z" fill="#9298B4"/>
<path d="M24.3429 11.7959H24.2887C24.4119 11.4237 24.4449 11.0274 24.3851 10.6399C24.3252 10.2524 24.1741 9.88461 23.9442 9.56689C23.7144 9.24917 23.4124 8.99059 23.0631 8.81243C22.7137 8.63427 22.3271 8.54163 21.935 8.54214C21.5428 8.54264 21.1564 8.63628 20.8076 8.81535C20.4587 8.99441 20.1574 9.25378 19.9283 9.57209C19.6993 9.8904 19.5492 10.2586 19.4903 10.6462C19.4314 11.0339 19.4655 11.4301 19.5896 11.802C19.2322 11.8296 18.885 11.9344 18.5721 12.1093C18.2591 12.2841 17.9879 12.5249 17.7771 12.8148C17.5663 13.1048 17.421 13.4371 17.3512 13.7887C17.2815 14.1404 17.2889 14.503 17.373 14.8514C17.4571 15.1999 17.6158 15.526 17.8383 15.8071C18.0608 16.0882 18.3416 16.3177 18.6615 16.4796C18.9813 16.6415 19.3325 16.7321 19.6907 16.745C20.049 16.7579 20.4058 16.6928 20.7364 16.5543L20.4989 17.8358C20.4807 17.9332 20.4842 18.0334 20.5092 18.1293C20.5341 18.2251 20.5798 18.3143 20.6431 18.3905C20.7064 18.4667 20.7857 18.528 20.8754 18.5701C20.965 18.6123 21.0629 18.6341 21.1619 18.6341H22.9606C23.0597 18.6341 23.1575 18.6122 23.2472 18.5701C23.3369 18.528 23.4162 18.4667 23.4795 18.3905C23.5428 18.3143 23.5886 18.2252 23.6136 18.1293C23.6386 18.0334 23.6422 17.9332 23.6242 17.8358L23.3861 16.5543C23.7241 16.6951 24.089 16.7592 24.4548 16.742C24.8205 16.7248 25.1778 16.6267 25.5011 16.4548C25.8243 16.2828 26.1054 16.0413 26.3241 15.7477C26.5428 15.4541 26.6936 15.1156 26.7658 14.7566C26.8379 14.3977 26.8295 14.0272 26.7412 13.6719C26.653 13.3166 26.487 12.9852 26.2553 12.7018C26.0235 12.4183 25.7318 12.1898 25.4012 12.0326C25.0705 11.8754 24.7091 11.7936 24.3429 11.7929V11.7959Z" fill="#9298B4"/>
</svg>
