<svg width="28" height="28" viewBox="0 0 28 28" fill="none" xmlns="http://www.w3.org/2000/svg">
<path fillRule="evenodd" clipRule="evenodd" d="M7.987 5.30318C7.987 4.58346 8.57046 4 9.29018 4H18.6731C19.3928 4 19.9762 4.58346 19.9762 5.30318V19.3775C19.9762 20.0972 19.3928 20.6807 18.6731 20.6807H9.29018C8.57046 20.6807 7.987 20.0972 7.987 19.3775V5.30318ZM14.7253 9.15568C14.4912 8.43531 13.472 8.43531 13.238 9.15568L12.9283 10.1087C12.8236 10.4309 12.5234 10.649 12.1847 10.649H11.1826C10.4252 10.649 10.1102 11.6182 10.723 12.0635L11.5337 12.6525C11.8078 12.8516 11.9224 13.2045 11.8178 13.5267L11.5081 14.4797C11.274 15.2001 12.0985 15.7991 12.7113 15.3539L13.522 14.7649C13.7961 14.5658 14.1672 14.5658 14.4412 14.7649L15.2519 15.3539C15.8647 15.7991 16.6892 15.2001 16.4551 14.4797L16.1455 13.5267C16.0408 13.2045 16.1555 12.8516 16.4295 12.6525L17.2402 12.0635C17.853 11.6182 17.5381 10.649 16.7806 10.649H15.7785C15.4398 10.649 15.1396 10.4309 15.0349 10.1087L14.7253 9.15568Z" fill="#9298B4"/>
<path d="M17.1015 21.7238L15.3777 22.4283L19.8787 24.2679C20.5449 24.5402 21.3057 24.2208 21.578 23.5546L26.9028 10.5264C27.1751 9.86018 26.8556 9.09936 26.1894 8.82707L21.0187 6.71376V19.3781C21.0187 20.6736 19.9684 21.7238 18.6729 21.7238H17.1015Z" fill="#9298B4"/>
<path d="M6.94449 6.72754L1.81049 8.82584C1.14425 9.09812 0.824915 9.85894 1.09721 10.5252L6.42189 23.5534C6.69417 24.2196 7.45499 24.5389 8.12123 24.2667L14.3459 21.7226H9.2902C7.99469 21.7226 6.94449 20.6724 6.94449 19.3769V6.72754Z" fill="#9298B4"/>
</svg>
