<svg width="28" height="28" viewBox="0 0 28 28" fill="none" xmlns="http://www.w3.org/2000/svg">
<path d="M24 19.2857V21.0714C24 22.0564 23.1986 22.8571 22.2143 22.8571H6.85714C5.28143 22.8571 4 21.5757 4 20C4 20 4 7.86786 4 7.85714C4 6.28143 5.28143 5 6.85714 5H20.0714C20.6636 5 21.1429 5.48 21.1429 6.07143C21.1429 6.66286 20.6636 7.14286 20.0714 7.14286H6.85714C6.46357 7.14286 6.14286 7.46286 6.14286 7.85714C6.14286 8.25143 6.46357 8.57143 6.85714 8.57143H22.2143C23.1986 8.57143 24 9.37214 24 10.3571V12.1429H20.4286C18.4593 12.1429 16.8571 13.745 16.8571 15.7143C16.8571 17.6836 18.4593 19.2857 20.4286 19.2857H24Z" fill="#9298B4"/>
<path d="M24.0002 13.5717V17.8574H20.4288C19.2452 17.8574 18.2859 16.8981 18.2859 15.7145C18.2859 14.5309 19.2452 13.5717 20.4288 13.5717H24.0002Z" fill="#9298B4"/>
</svg>
