<svg width="84" height="80" viewBox="0 0 84 80" fill="none" xmlns="http://www.w3.org/2000/svg">
<path d="M80.2732 17.4385H3.48344C1.55949 17.4385 0 15.879 0 13.9551V3.48344C0 1.55949 1.55949 0 3.48344 0H80.2732C82.1972 0 83.7566 1.55949 83.7566 3.48344V13.9551C83.7566 15.879 82.1972 17.4385 80.2732 17.4385Z" fill="#5B2AED" fill-opacity="0.8"/>
<path d="M73.6651 8.70557H10.0933V74.2112L17.3173 80L25.6546 74.2112L33.7669 80L41.8792 74.2112L49.9915 80L58.1037 74.2112L66.4411 80L73.6651 74.2112V8.70557Z" fill="#2B2D47"/>
<path d="M41.8622 57.7948C50.0921 57.7948 56.7639 51.135 56.7639 42.9199C56.7639 34.7047 50.0921 28.0449 41.8622 28.0449C33.6322 28.0449 26.9604 34.7047 26.9604 42.9199C26.9604 51.135 33.6322 57.7948 41.8622 57.7948Z" fill="white"/>
<path d="M42.721 41.756V38.2007C43.4394 38.3479 44.1235 38.6649 44.7118 39.1253C44.8594 39.229 45.0318 39.2849 45.2125 39.2875C45.7731 39.2875 46.234 38.8205 46.2401 38.246C46.2412 37.9932 46.1465 37.755 45.9658 37.5678C45.0558 36.7694 43.9038 36.2811 42.7107 36.186V35.0284C42.7107 34.5973 42.3692 34.2466 41.9662 34.2466C41.5325 34.2061 41.138 34.5847 41.1402 35.0284V36.144C38.7893 36.3595 37.1577 37.9033 37.1577 39.9294C37.1577 42.3543 39.0307 43.105 41.1402 43.6952V47.7738C40.1826 47.6164 39.2889 47.1982 38.5452 46.5577C38.3763 46.4199 38.1633 46.3413 37.9343 46.3365C37.3852 46.3757 36.9607 46.8481 36.9679 47.4103C36.9668 47.6628 37.0613 47.9012 37.2398 48.0863C38.319 49.0817 39.7037 49.6675 41.1506 49.7433V50.8114C41.1456 51.2453 41.537 51.6252 41.9568 51.5943C42.3783 51.5943 42.721 51.2431 42.721 50.8114V49.718C45.6934 49.4703 46.7561 47.4969 46.7561 45.716C46.7563 43.1324 44.6904 42.3083 42.721 41.756ZM44.5853 45.9535C44.5853 46.709 44.0921 47.5762 42.7212 47.7969V44.1763C43.8531 44.5231 44.5944 44.9729 44.5853 45.9535ZM41.1506 38.1127V41.3389C40.1193 41.0203 39.3497 40.6805 39.3497 39.8C39.3497 38.895 40.0518 38.2429 41.1506 38.1127Z" fill="#5B2AED"/>
</svg>
