<svg width="20" height="20" viewBox="0 0 20 20" fill="none" xmlns="http://www.w3.org/2000/svg">
<path d="M10 20C15.5228 20 20 15.5228 20 10C20 4.47715 15.5228 0 10 0C4.47715 0 0 4.47715 0 10C0 15.5228 4.47715 20 10 20Z" fill="#EB7D0E"/>
<path d="M13.8236 10.2736C13.5655 9.9398 13.1759 9.71053 12.655 9.58592C13.3184 9.24756 13.6099 8.67329 13.5298 7.86301C13.5031 7.56919 13.4219 7.31454 13.286 7.09869C13.1501 6.8828 12.9667 6.70924 12.735 6.57794C12.5036 6.44647 12.2519 6.3464 11.9805 6.2774C11.709 6.20841 11.3973 6.15831 11.0456 6.12718V4.44446H10.0174V6.08043C9.83931 6.08043 9.56777 6.08487 9.20278 6.09378V4.44446H8.17441V6.12718C8.02746 6.13165 7.81159 6.13392 7.5267 6.13392L6.11111 6.12718V7.2223H6.85226C7.19059 7.2223 7.38869 7.37369 7.44655 7.67636V9.59282C7.49112 9.59282 7.5267 9.59511 7.55343 9.59955H7.44655V12.2838C7.41097 12.5108 7.2819 12.6243 7.05929 12.6243H6.31819L6.11116 13.8463H7.44666C7.53126 13.8463 7.6536 13.8475 7.81393 13.8495C7.97416 13.8517 8.0943 13.8528 8.17445 13.8528V15.5556H9.20299V13.8729C9.3899 13.8774 9.66144 13.8796 10.0176 13.8796V15.5556H11.0458V13.8528C11.4109 13.8351 11.7348 13.8019 12.0173 13.7527C12.3 13.7036 12.5705 13.6269 12.8286 13.5222C13.0868 13.4177 13.3026 13.2874 13.4762 13.1316C13.6499 12.9759 13.7933 12.7777 13.907 12.5373C14.0204 12.2969 14.0928 12.0186 14.1239 11.7025C14.182 11.0839 14.0818 10.6075 13.8236 10.2736ZM9.22277 7.29555C9.25395 7.29555 9.34187 7.29443 9.48654 7.29218C9.63129 7.28989 9.75144 7.28769 9.84714 7.28545C9.94287 7.28325 10.072 7.28882 10.2345 7.30217C10.397 7.31552 10.5339 7.33337 10.6451 7.35559C10.7564 7.37781 10.8789 7.41455 11.0123 7.46575C11.146 7.5169 11.2528 7.57925 11.3328 7.65269C11.413 7.72612 11.4809 7.81965 11.5364 7.93318C11.5921 8.04668 11.62 8.17688 11.62 8.32376C11.62 8.44842 11.6 8.56197 11.5599 8.66441C11.52 8.76677 11.4597 8.85249 11.3797 8.92149C11.2997 8.9905 11.2171 9.05066 11.1325 9.10181C11.048 9.15296 10.94 9.19417 10.8087 9.2253C10.6775 9.25647 10.5628 9.28096 10.465 9.29874C10.367 9.31656 10.2446 9.32884 10.0977 9.33548C9.95075 9.34212 9.83942 9.34666 9.76379 9.34886C9.68808 9.35105 9.58461 9.35105 9.45324 9.34886C9.32185 9.34666 9.24516 9.34549 9.22284 9.34549V7.29553L9.22277 7.29555ZM12.0307 11.8428C11.9883 11.9453 11.9339 12.0343 11.8672 12.1101C11.8003 12.1856 11.7124 12.2525 11.6033 12.3102C11.4944 12.3682 11.3885 12.4149 11.2862 12.4505C11.1838 12.4862 11.0602 12.5172 10.9157 12.544C10.7708 12.5708 10.644 12.5896 10.5348 12.6008C10.4258 12.6119 10.2957 12.6208 10.1443 12.6275C9.99296 12.6341 9.87493 12.6375 9.79038 12.6375C9.70578 12.6375 9.59892 12.6363 9.46982 12.6341C9.34065 12.632 9.25837 12.6309 9.22273 12.6309V10.3738C9.2583 10.3738 9.36404 10.3716 9.53992 10.3671C9.71582 10.3626 9.8593 10.3605 9.97061 10.3605C10.0819 10.3605 10.2355 10.3671 10.4315 10.3805C10.6272 10.3938 10.7919 10.4138 10.9256 10.4405C11.0591 10.4672 11.2048 10.5083 11.3629 10.5641C11.5209 10.6197 11.649 10.6875 11.7469 10.7677C11.8449 10.8479 11.9272 10.9502 11.9939 11.0748C12.0609 11.1995 12.0942 11.3419 12.0942 11.5022C12.0942 11.627 12.0731 11.7404 12.0307 11.8428Z" fill="black"/>
</svg>
