<svg width="28" height="28" viewBox="0 0 28 28" fill="none" xmlns="http://www.w3.org/2000/svg">
<path d="M14 28C21.732 28 28 21.732 28 14C28 6.26801 21.732 0 14 0C6.26801 0 0 6.26801 0 14C0 21.732 6.26801 28 14 28Z" fill="#EB7D0E"/>
<path d="M19.3531 14.383C18.9918 13.9156 18.4464 13.5947 17.7172 13.4202C18.6458 12.9465 19.0539 12.1425 18.9419 11.0081C18.9044 10.5968 18.7907 10.2403 18.6006 9.9381C18.4103 9.63585 18.1535 9.39286 17.8292 9.20904C17.5051 9.02499 17.1527 8.88488 16.7727 8.78829C16.3927 8.6917 15.9563 8.62156 15.4639 8.57798V6.22217H14.0244V8.51252C13.7751 8.51252 13.395 8.51875 12.884 8.53122V6.22217H11.4443V8.57798C11.2385 8.58423 10.9363 8.58741 10.5375 8.58741L8.55566 8.57798V10.1111H9.59326C10.0669 10.1111 10.3443 10.3231 10.4253 10.7468V13.4299C10.4877 13.4299 10.5375 13.4331 10.5749 13.4393H10.4253V17.1972C10.3755 17.515 10.1948 17.674 9.88311 17.674H8.84557L8.55573 19.3848H10.4254C10.5439 19.3848 10.7151 19.3864 10.9396 19.3892C11.1639 19.3923 11.3321 19.3939 11.4443 19.3939V21.7777H12.8843V19.4219C13.146 19.4283 13.5261 19.4314 14.0247 19.4314V21.7777H15.4643V19.3939C15.9754 19.369 16.4288 19.3225 16.8243 19.2537C17.2201 19.185 17.5988 19.0776 17.9602 18.9311C18.3216 18.7847 18.6238 18.6023 18.8668 18.3841C19.11 18.1662 19.3108 17.8887 19.47 17.5521C19.6286 17.2155 19.73 16.826 19.7735 16.3834C19.8549 15.5174 19.7146 14.8505 19.3531 14.383ZM12.912 10.2137C12.9556 10.2137 13.0787 10.2121 13.2813 10.209C13.4839 10.2058 13.6521 10.2027 13.7861 10.1996C13.9201 10.1965 14.1009 10.2043 14.3284 10.223C14.5559 10.2417 14.7475 10.2666 14.9033 10.2978C15.059 10.3289 15.2306 10.3803 15.4174 10.452C15.6045 10.5236 15.754 10.6109 15.866 10.7137C15.9783 10.8165 16.0733 10.9474 16.1511 11.1064C16.2291 11.2653 16.268 11.4476 16.268 11.6532C16.268 11.8277 16.24 11.9867 16.184 12.1301C16.1281 12.2734 16.0437 12.3934 15.9317 12.49C15.8196 12.5866 15.7041 12.6708 15.5857 12.7425C15.4674 12.8141 15.3161 12.8718 15.1323 12.9153C14.9486 12.959 14.7881 12.9933 14.651 13.0182C14.5139 13.0431 14.3426 13.0603 14.1369 13.0696C13.9312 13.0789 13.7753 13.0852 13.6694 13.0883C13.5634 13.0914 13.4186 13.0914 13.2346 13.0883C13.0507 13.0852 12.9433 13.0836 12.9121 13.0836V10.2137L12.912 10.2137ZM16.8431 16.5799C16.7838 16.7233 16.7076 16.848 16.6141 16.954C16.5206 17.0598 16.3974 17.1534 16.2448 17.2343C16.0922 17.3154 15.944 17.3807 15.8008 17.4306C15.6574 17.4807 15.4844 17.524 15.282 17.5616C15.0792 17.599 14.9017 17.6253 14.7489 17.641C14.5963 17.6566 14.4141 17.669 14.2021 17.6785C13.9903 17.6876 13.825 17.6924 13.7066 17.6924C13.5882 17.6924 13.4386 17.6907 13.2579 17.6876C13.077 17.6847 12.9618 17.6832 12.9119 17.6832V14.5233C12.9617 14.5233 13.1098 14.5202 13.356 14.5139C13.6022 14.5076 13.8031 14.5047 13.959 14.5047C14.1147 14.5047 14.3298 14.5139 14.6042 14.5327C14.8782 14.5513 15.1088 14.5792 15.296 14.6166C15.4829 14.654 15.6868 14.7116 15.9082 14.7896C16.1294 14.8675 16.3087 14.9625 16.4458 15.0747C16.583 15.187 16.6982 15.3302 16.7916 15.5047C16.8853 15.6792 16.932 15.8786 16.932 16.1031C16.932 16.2777 16.9024 16.4364 16.8431 16.5799Z" fill="black"/>
</svg>
