<svg width="16" height="16" viewBox="0 0 16 16" fill="none" xmlns="http://www.w3.org/2000/svg">
<path d="M2.30933 13.616C2.32 13.6293 2.33067 13.6427 2.344 13.656C2.35467 13.6667 2.368 13.6773 2.38133 13.6853C2.38133 13.6853 2.384 13.6907 2.38667 13.6907C3.82133 15.1067 5.78133 15.984 7.94667 15.9947C7.95467 15.9973 7.96267 15.9973 7.97333 15.9973C7.98133 16 7.992 16 8 16C8.008 16 8.01867 16 8.02667 15.9973C8.03733 15.9973 8.04533 15.9973 8.05333 15.9947C10.2293 15.984 12.2 15.096 13.6347 13.672C13.6427 13.6667 13.648 13.6613 13.6533 13.656C13.6667 13.6427 13.6773 13.6293 13.688 13.616C15.12 12.1707 16 10.1867 16 8V7.99733C16 5.81067 15.1173 3.82667 13.688 2.384C13.6773 2.37067 13.6667 2.35733 13.6533 2.34667C13.6507 2.34133 13.6453 2.336 13.64 2.33333C13.64 2.33156 13.6391 2.33067 13.6373 2.33067C12.192 0.890667 10.1973 0 8 0C5.80267 0 3.832 0.88 2.38667 2.30667C2.38667 2.30667 2.38667 2.30933 2.384 2.30933C2.37067 2.32 2.35733 2.33067 2.344 2.344C2.33067 2.35733 2.32 2.37067 2.30933 2.384C2.30933 2.38667 2.30667 2.38667 2.30667 2.38667C0.88 3.82933 0 5.81333 0 7.99733V8C0 10.1867 0.88 12.168 2.30667 13.6133C2.30667 13.6133 2.30933 13.6133 2.30933 13.616ZM8.26667 15.456V13.616C9.58133 13.5573 10.8133 13.048 11.784 12.1653L13.0827 13.4613C11.8107 14.648 10.1227 15.3947 8.26667 15.456ZM13.4613 2.91467C14.648 4.18667 15.3947 5.87467 15.4587 7.73067H13.6133C13.5547 6.416 13.0453 5.184 12.1627 4.21333L13.4613 2.91467ZM7.73333 0.538667V2.38133C6.42133 2.44267 5.18933 2.952 4.21333 3.83733L2.91467 2.53867C4.18667 1.352 5.87467 0.602667 7.73333 0.538667ZM4.39733 4.4C5.35733 3.44533 6.62667 2.91733 7.97333 2.90933H7.97867C7.98667 2.912 7.992 2.912 8 2.912C8.008 2.912 8.01333 2.912 8.02133 2.90933H8.02667C9.37067 2.91733 10.6347 3.44 11.5867 4.38667L11.5893 4.38933C11.592 4.392 11.5973 4.39733 11.6 4.4C11.6027 4.40267 11.608 4.408 11.608 4.41067C12.5627 5.368 13.088 6.64267 13.088 7.99733C13.088 9.352 12.56 10.6373 11.6 11.6L11.5973 11.6027C10.6427 12.5547 9.376 13.0827 8.02667 13.0907H8.02133C8.01333 13.088 8.008 13.088 8 13.088C7.992 13.088 7.98667 13.088 7.97867 13.0907H7.97333C6.62667 13.0827 5.35733 12.5547 4.39733 11.6C3.43733 10.6373 2.90933 9.35733 2.90933 7.99733C2.90933 6.63733 3.43733 5.36 4.39733 4.4ZM2.384 8.264C2.44267 9.57867 2.952 10.8107 3.83733 11.7867L2.53867 13.0853C1.352 11.8133 0.602667 10.1253 0.541333 8.264H2.384Z" fill="white"/>
</svg>
