<svg width="13" height="16" viewBox="0 0 13 16" fill="none" xmlns="http://www.w3.org/2000/svg">
<path d="M9.66881 2.75024H0.597194C0.267861 2.75024 0 3.01811 0 3.34744V15.4028C0 15.7321 0.267861 16 0.597194 16H9.66881C9.99783 16 10.2657 15.7321 10.2657 15.4028V3.34744C10.2657 3.01811 9.99783 2.75024 9.66881 2.75024Z" fill="#9298B4"/>
<path d="M12.9314 1.52882V12.7401C12.9314 13.5096 12.3122 14.269 11.2213 14.269V3.14522C11.2213 2.25373 10.4964 1.52882 9.60525 1.52882H1.64648C1.64648 0.685738 2.37299 0 3.26576 0H11.3121C12.2049 0 12.9314 0.685738 12.9314 1.52882Z" fill="#9298B4"/>
</svg>
