 <svg width="32" height="32" viewBox="0 0 32 32" fill="none" xmlns="http://www.w3.org/2000/svg">
<path d="M16 32C24.8366 32 32 24.8366 32 16C32 7.16344 24.8366 0 16 0C7.16344 0 0 7.16344 0 16C0 24.8366 7.16344 32 16 32Z" fill="#5F7EDD"/>
<path d="M15.9981 20.3583L10.6221 17.1823L15.9981 24.7599L21.3789 17.1823L15.9981 20.3583Z" fill="white"/>
<path d="M21.3753 16.1634L15.9977 19.341L10.6201 16.1634L15.9977 7.24023L21.3753 16.1634Z" fill="white"/>
<path d="M21.3747 16.1634L15.9971 13.7186V7.24023L21.3747 16.1634Z" fill="#C1CCF7"/>
<path d="M21.3779 17.1823L15.9971 24.7599V20.3583L21.3779 17.1823Z" fill="#C1CCF7"/>
<path d="M15.9971 13.7184V19.3408L10.6211 16.1632L15.9971 13.7184Z" fill="#C1CCF7"/>
<path d="M21.3756 16.1632L15.998 19.3408V13.7184L21.3756 16.1632Z" fill="#8198EE"/>
</svg>
