<?xml version="1.0" encoding="UTF-8"?>
<svg version="1.1" xmlns="http://www.w3.org/2000/svg" width="512" height="512">
<path d="M0 0 C1.01790619 0.00215515 2.03581238 0.0043103 3.08456421 0.00653076 C17.69363523 0.05620146 32.02575853 0.30709809 46.375 3.3125 C47.34985352 3.51117676 48.32470703 3.70985352 49.32910156 3.91455078 C97.7109774 14.03517194 141.69928269 35.9516877 177.375 70.3125 C178.3640332 71.26068604 178.3640332 71.26068604 179.37304688 72.22802734 C188.86130305 81.37247479 197.6012044 90.66984009 205.375 101.3125 C206.23306152 102.46355017 207.09113451 103.61459177 207.94921875 104.765625 C213.98736829 112.95680614 219.34595521 121.47054105 224.375 130.3125 C224.73948242 130.94430176 225.10396484 131.57610352 225.47949219 132.22705078 C247.08534998 169.97532572 256.85198095 212.74189997 256.6875 255.9375 C256.68534485 256.95540619 256.6831897 257.97331238 256.68096924 259.02206421 C256.63129854 273.63113523 256.38040191 287.96325853 253.375 302.3125 C253.07698486 303.77478027 253.07698486 303.77478027 252.77294922 305.26660156 C242.65232806 353.6484774 220.7358123 397.63678269 186.375 433.3125 C185.74287598 433.97185547 185.11075195 434.63121094 184.45947266 435.31054688 C175.31502521 444.79880305 166.01765991 453.5387044 155.375 461.3125 C154.22394983 462.17056152 153.07290823 463.02863451 151.921875 463.88671875 C143.73224019 469.92427396 135.22961724 475.30707302 126.375 480.3125 C125.66778809 480.7146875 124.96057617 481.116875 124.23193359 481.53125 C101.09654164 494.5566741 75.92537591 503.30551461 49.9375 508.625 C49.21860596 508.77235596 48.49971191 508.91971191 47.7590332 509.0715332 C33.08339502 511.86090125 18.55831162 512.66142619 3.64770508 512.62817383 C0.70811513 512.6250221 -2.2304558 512.64854926 -5.16992188 512.67382812 C-18.54306192 512.71848737 -31.43916711 511.51301542 -44.625 509.3125 C-46.33055054 509.03031616 -46.33055054 509.03031616 -48.07055664 508.74243164 C-91.33802759 500.97044532 -132.38793216 480.98345309 -165.625 452.3125 C-166.37007813 451.67828125 -167.11515625 451.0440625 -167.8828125 450.390625 C-181.38779833 438.57948485 -194.05918743 425.82889772 -204.625 411.3125 C-205.48149066 410.16255169 -206.33826433 409.01281411 -207.1953125 407.86328125 C-213.23534209 399.67315742 -218.61867614 391.16870382 -223.625 382.3125 C-224.0271875 381.60528809 -224.429375 380.89807617 -224.84375 380.16943359 C-237.8691741 357.03404164 -246.61801461 331.86287591 -251.9375 305.875 C-252.08485596 305.15610596 -252.23221191 304.43721191 -252.3840332 303.6965332 C-255.35789088 288.05024391 -255.99800362 272.57681954 -255.9375 256.6875 C-255.93534485 255.66959381 -255.9331897 254.65168762 -255.93096924 253.60293579 C-255.88129854 238.99386477 -255.63040191 224.66174147 -252.625 210.3125 C-252.42632324 209.33764648 -252.22764648 208.36279297 -252.02294922 207.35839844 C-241.90232806 158.9765226 -219.9858123 114.98821731 -185.625 79.3125 C-184.99287598 78.65314453 -184.36075195 77.99378906 -183.70947266 77.31445312 C-174.56502521 67.82619695 -165.26765991 59.0862956 -154.625 51.3125 C-153.47394983 50.45443848 -152.32290823 49.59636549 -151.171875 48.73828125 C-142.98224019 42.70072604 -134.47961724 37.31792698 -125.625 32.3125 C-124.91778809 31.9103125 -124.21057617 31.508125 -123.48193359 31.09375 C-100.34654164 18.0683259 -75.17537591 9.31948539 -49.1875 4 C-48.46860596 3.85264404 -47.74971191 3.70528809 -47.0090332 3.5534668 C-31.36274391 0.57960912 -15.88931954 -0.06050362 0 0 Z " fill="#FB9526" transform="translate(255.625,-0.3125)"/>
<path d="M0 0 C1.01790619 0.00215515 2.03581238 0.0043103 3.08456421 0.00653076 C17.69363523 0.05620146 32.02575853 0.30709809 46.375 3.3125 C47.34985352 3.51117676 48.32470703 3.70985352 49.32910156 3.91455078 C97.7109774 14.03517194 141.69928269 35.9516877 177.375 70.3125 C178.3640332 71.26068604 178.3640332 71.26068604 179.37304688 72.22802734 C188.86130305 81.37247479 197.6012044 90.66984009 205.375 101.3125 C206.23306152 102.46355017 207.09113451 103.61459177 207.94921875 104.765625 C213.98736829 112.95680614 219.34595521 121.47054105 224.375 130.3125 C224.73948242 130.94430176 225.10396484 131.57610352 225.47949219 132.22705078 C247.08534998 169.97532572 256.85198095 212.74189997 256.6875 255.9375 C256.68534485 256.95540619 256.6831897 257.97331238 256.68096924 259.02206421 C256.63129854 273.63113523 256.38040191 287.96325853 253.375 302.3125 C253.07698486 303.77478027 253.07698486 303.77478027 252.77294922 305.26660156 C242.65232806 353.6484774 220.7358123 397.63678269 186.375 433.3125 C185.74287598 433.97185547 185.11075195 434.63121094 184.45947266 435.31054688 C175.31502521 444.79880305 166.01765991 453.5387044 155.375 461.3125 C154.22394983 462.17056152 153.07290823 463.02863451 151.921875 463.88671875 C143.73224019 469.92427396 135.22961724 475.30707302 126.375 480.3125 C125.66778809 480.7146875 124.96057617 481.116875 124.23193359 481.53125 C101.09654164 494.5566741 75.92537591 503.30551461 49.9375 508.625 C49.21860596 508.77235596 48.49971191 508.91971191 47.7590332 509.0715332 C33.08339502 511.86090125 18.55831162 512.66142619 3.64770508 512.62817383 C0.70811513 512.6250221 -2.2304558 512.64854926 -5.16992188 512.67382812 C-18.54306192 512.71848737 -31.43916711 511.51301542 -44.625 509.3125 C-46.33055054 509.03031616 -46.33055054 509.03031616 -48.07055664 508.74243164 C-91.33802759 500.97044532 -132.38793216 480.98345309 -165.625 452.3125 C-166.37007813 451.67828125 -167.11515625 451.0440625 -167.8828125 450.390625 C-181.38779833 438.57948485 -194.05918743 425.82889772 -204.625 411.3125 C-205.48149066 410.16255169 -206.33826433 409.01281411 -207.1953125 407.86328125 C-213.23534209 399.67315742 -218.61867614 391.16870382 -223.625 382.3125 C-224.0271875 381.60528809 -224.429375 380.89807617 -224.84375 380.16943359 C-237.8691741 357.03404164 -246.61801461 331.86287591 -251.9375 305.875 C-252.08485596 305.15610596 -252.23221191 304.43721191 -252.3840332 303.6965332 C-255.35789088 288.05024391 -255.99800362 272.57681954 -255.9375 256.6875 C-255.93534485 255.66959381 -255.9331897 254.65168762 -255.93096924 253.60293579 C-255.88129854 238.99386477 -255.63040191 224.66174147 -252.625 210.3125 C-252.42632324 209.33764648 -252.22764648 208.36279297 -252.02294922 207.35839844 C-241.90232806 158.9765226 -219.9858123 114.98821731 -185.625 79.3125 C-184.99287598 78.65314453 -184.36075195 77.99378906 -183.70947266 77.31445312 C-174.56502521 67.82619695 -165.26765991 59.0862956 -154.625 51.3125 C-153.47394983 50.45443848 -152.32290823 49.59636549 -151.171875 48.73828125 C-142.98224019 42.70072604 -134.47961724 37.31792698 -125.625 32.3125 C-124.91778809 31.9103125 -124.21057617 31.508125 -123.48193359 31.09375 C-100.34654164 18.0683259 -75.17537591 9.31948539 -49.1875 4 C-48.46860596 3.85264404 -47.74971191 3.70528809 -47.0090332 3.5534668 C-31.36274391 0.57960912 -15.88931954 -0.06050362 0 0 Z M-126.625 89.3125 C-127.59953125 90.05757812 -128.5740625 90.80265625 -129.578125 91.5703125 C-153.02391324 110.14870026 -171.89832798 132.72298964 -185.625 159.3125 C-186.03492188 160.10108398 -186.44484375 160.88966797 -186.8671875 161.70214844 C-193.61689453 174.83851007 -198.59337899 188.11614326 -202.625 202.3125 C-203.11419922 203.98699219 -203.11419922 203.98699219 -203.61328125 205.6953125 C-208.06684363 222.09355757 -209.17194085 238.58433594 -209.0625 255.5 C-209.05979095 256.4849646 -209.05708191 257.4699292 -209.05429077 258.48474121 C-208.99206019 273.42068725 -208.3329808 287.7709244 -204.625 302.3125 C-204.43776367 303.06660156 -204.25052734 303.82070313 -204.05761719 304.59765625 C-202.97342314 308.84455108 -201.72685049 313.01436681 -200.33886719 317.17138672 C-199.57131927 319.47350548 -198.83770525 321.78531828 -198.1015625 324.09765625 C-189.35496616 350.90377165 -174.94333418 375.19261645 -155.84375 395.90625 C-153.54180332 398.40272739 -151.30509458 400.95020069 -149.0625 403.5 C-145.16362346 407.81350836 -141.11455458 411.62649459 -136.625 415.3125 C-136.1388623 415.72693359 -135.65272461 416.14136719 -135.15185547 416.56835938 C-109.83950594 438.14510217 -78.30714471 454.53740286 -45.625 461.3125 C-44.96612793 461.47878906 -44.30725586 461.64507812 -43.62841797 461.81640625 C-15.75631331 468.8104154 18.59060351 468.56552671 46.375 461.3125 C47.91394034 460.94610109 49.45300226 460.5802125 50.9921875 460.21484375 C78.57408423 453.36166399 104.92910945 440.7139419 127.375 423.3125 C128.36113281 422.55582031 129.34726562 421.79914063 130.36328125 421.01953125 C140.76588005 412.75465898 151.01050847 403.66512549 159.375 393.3125 C160.28480019 392.22626418 161.19499506 391.14035887 162.10546875 390.0546875 C169.38285049 381.28102166 175.7266946 372.21221806 181.375 362.3125 C181.85469238 361.47219238 182.33438477 360.63188477 182.82861328 359.76611328 C199.83699992 329.53809343 210.05700038 296.52661081 209.71118164 261.72314453 C209.68743923 259.18099365 209.69067699 256.63989155 209.69726562 254.09765625 C209.61440102 203.38084769 190.90961119 153.91664314 156.4453125 116.5703125 C154.59071134 114.54774746 152.82464839 112.47766016 151.0625 110.375 C122.21385759 77.50862429 78.66126982 57.35353863 36.375 49.3125 C35.43946289 49.12486084 34.50392578 48.93722168 33.54003906 48.74389648 C23.38849849 46.91905555 13.27849654 46.95747049 3 47 C1.60170959 47.00323273 1.60170959 47.00323273 0.1751709 47.00653076 C-45.95701165 47.17780137 -89.83729118 60.81350877 -126.625 89.3125 Z " fill="#FBAF3F" transform="translate(255.625,-0.3125)"/>
<path d="M0 0 C0.64445068 0.26756104 1.28890137 0.53512207 1.95288086 0.81079102 C6.54255386 2.91799937 9.32441867 5.39937909 12.0625 9.625 C12.66576627 12.47868603 12.97775051 14.76213648 13.0625 17.625 C13.11760742 18.78201416 13.11760742 18.78201416 13.17382812 19.96240234 C13.26665254 22.41385559 13.29701095 24.85942155 13.3125 27.3125 C13.3434375 28.55483398 13.3434375 28.55483398 13.375 29.82226562 C13.42835986 38.15307313 13.42835986 38.15307313 10.0625 41.625 C4.90082382 42.62986413 1.96244576 40.68422881 -2.3125 37.9375 C-13.64173741 31.14478364 -24.12183834 28.21382816 -37.375 28.125 C-38.28636719 28.11855469 -39.19773437 28.11210937 -40.13671875 28.10546875 C-50.05404612 28.29395597 -58.29106027 31.24815781 -65.9375 37.625 C-72.10171167 44.11796963 -75.27582067 51.87565199 -77.55078125 60.41796875 C-77.81286377 61.39660889 -78.07494629 62.37524902 -78.3449707 63.38354492 C-78.54050537 64.1232251 -78.73604004 64.86290527 -78.9375 65.625 C-78.34281418 65.61389694 -77.74812836 65.60279388 -77.13542175 65.59135437 C-70.95526118 65.48088041 -64.7753802 65.40538292 -58.59448242 65.3503418 C-56.28674938 65.32517125 -53.97909626 65.29103203 -51.67163086 65.24780273 C-48.35770985 65.18726474 -45.04484106 65.15881551 -41.73046875 65.13671875 C-40.17878242 65.09800911 -40.17878242 65.09800911 -38.5957489 65.05851746 C-35.95034874 65.05747761 -33.52992511 65.09917188 -30.9375 65.625 C-27.34166229 69.45541981 -27.50893683 73.59250075 -27.625 78.625 C-27.62177734 79.32367188 -27.61855469 80.02234375 -27.61523438 80.7421875 C-27.66945905 85.9674746 -28.17744061 89.86494061 -31.9375 93.625 C-34.11416626 93.86550903 -34.11416626 93.86550903 -36.84619141 93.85205078 C-37.86709869 93.85189972 -38.88800598 93.85174866 -39.93984985 93.85159302 C-41.04509003 93.84127045 -42.1503302 93.83094788 -43.2890625 93.8203125 C-44.4182309 93.8174826 -45.54739929 93.81465271 -46.71078491 93.81173706 C-50.32812971 93.80051462 -53.94522966 93.77540622 -57.5625 93.75 C-60.0104131 93.73997287 -62.45833007 93.73084656 -64.90625 93.72265625 C-70.91683759 93.70226755 -76.92689374 93.66312224 -82.9375 93.625 C-82.9375 101.215 -82.9375 108.805 -82.9375 116.625 C-77.48476562 116.53798828 -77.48476562 116.53798828 -71.921875 116.44921875 C-68.40383079 116.41023282 -64.88581058 116.37986824 -61.36767578 116.3503418 C-58.92127728 116.32518645 -56.47495401 116.29105834 -54.02880859 116.24780273 C-50.51380869 116.18719929 -46.99980171 116.15879979 -43.484375 116.13671875 C-42.3894574 116.11091232 -41.29453979 116.0851059 -40.16644287 116.05851746 C-32.6044542 116.0557197 -32.6044542 116.0557197 -29.24682617 118.92163086 C-27.52488907 122.47691886 -27.38800201 125.63426281 -27.5 129.5 C-27.49291016 130.18191406 -27.48582031 130.86382812 -27.47851562 131.56640625 C-27.54561411 136.98589951 -28.54326103 139.03844241 -30.9375 144.625 C-46.7775 144.625 -62.6175 144.625 -78.9375 144.625 C-75.80937632 157.13749474 -72.23986085 168.41476407 -60.75 175.4375 C-47.05107295 182.24099397 -31.11021978 182.88162595 -16.6875 178.125 C-9.58222601 175.6362296 -3.26805253 172.23673315 3.046875 168.1640625 C6.35767093 166.47435577 8.39941124 166.30694738 12.0625 166.625 C14.8093006 172.10406787 15.55000072 176.40310374 15.4375 182.5 C15.42662354 183.2950293 15.41574707 184.09005859 15.40454102 184.90917969 C15.2039148 192.28919623 14.63038368 198.50389397 9.125 203.875 C4.33268075 207.5535393 -1.33048292 209.51663936 -6.9375 211.625 C-8.22720703 212.15673828 -8.22720703 212.15673828 -9.54296875 212.69921875 C-31.31022291 221.11494344 -59.80884222 217.96100597 -80.9375 209.625 C-98.3073415 201.75394217 -111.54878801 188.30802632 -118.39013672 170.51196289 C-119.61484735 167.2296934 -120.78813213 163.93462556 -121.9375 160.625 C-122.31132812 159.58601562 -122.68515625 158.54703125 -123.0703125 157.4765625 C-124.36870998 153.20705726 -124.5773659 149.06665396 -124.9375 144.625 C-131.2075 144.625 -137.4775 144.625 -143.9375 144.625 C-147.31840071 136.73623169 -147.31840071 136.73623169 -147.3359375 133.6171875 C-147.33980469 132.94042969 -147.34367188 132.26367188 -147.34765625 131.56640625 C-147.33025391 130.54353516 -147.33025391 130.54353516 -147.3125 129.5 C-147.32410156 128.81035156 -147.33570313 128.12070312 -147.34765625 127.41015625 C-147.32254685 123.03275066 -147.08861745 119.78830746 -143.9375 116.625 C-141.01266942 116.01798898 -138.22055493 116.1553057 -135.25 116.3125 C-132.506875 116.415625 -129.76375 116.51875 -126.9375 116.625 C-126.9375 108.705 -126.9375 100.785 -126.9375 92.625 C-132.8775 92.625 -138.8175 92.625 -144.9375 92.625 C-147.2886567 87.9226866 -147.27060687 84.81860965 -147.25 79.6875 C-147.26611328 78.88892578 -147.28222656 78.09035156 -147.29882812 77.26757812 C-147.30169752 73.80421402 -147.02201713 70.9166963 -146.0546875 67.578125 C-143.03273592 64.79034679 -140.5688746 65.1132649 -136.56445312 65.18554688 C-135.63568359 65.22744141 -134.70691406 65.26933594 -133.75 65.3125 C-132.80962891 65.33505859 -131.86925781 65.35761719 -130.90039062 65.38085938 C-128.57782527 65.43980773 -126.25846224 65.52202215 -123.9375 65.625 C-123.81632812 64.45195312 -123.69515625 63.27890625 -123.5703125 62.0703125 C-121.45455901 45.29909581 -112.56428625 29.41543822 -101.9375 16.625 C-101.12732422 15.64273438 -101.12732422 15.64273438 -100.30078125 14.640625 C-76.08306389 -11.95616283 -31.19885795 -13.09881245 0 0 Z " fill="#020100" transform="translate(321.9375,151.375)"/>
</svg>
