<svg width="16" height="16" viewBox="0 0 16 16" fill="none" xmlns="http://www.w3.org/2000/svg">
<path d="M15.9996 8C15.9996 12.4181 12.4181 16 8 16C6.88805 16 5.82899 15.773 4.8666 15.3629C4.1922 15.0757 3.56524 14.6983 3.00092 14.246C2.54073 13.8773 2.12229 13.4589 1.75396 12.9987C1.30048 12.4331 0.922405 11.8045 0.634676 11.1281C0.225856 10.167 0 9.1098 0 8C0 3.58182 3.58156 0 8 0C10.1767 0 12.1502 0.869642 13.5926 2.28007C14.3408 3.01155 14.9461 3.88891 15.3623 4.86597C15.7727 5.82836 15.9996 6.8878 15.9996 8Z" fill="#43A3F9"/>
<path d="M4.56665 11.8318C4.56665 12.272 4.38837 12.6711 4.09975 12.9596C3.81088 13.2482 3.41269 13.4265 2.97211 13.4265H2.12234C1.29344 12.5294 0.667492 11.4421 0.317383 10.2373H2.97211C3.85289 10.2373 4.56665 10.9516 4.56665 11.8318Z" fill="#82E7A5"/>
<path d="M6.47411 2.89764C6.4793 3.77993 5.73365 4.50179 4.85136 4.50179H4.22427C4.01942 4.50179 3.85341 4.66779 3.85341 4.87265V5.92323C3.85341 6.80388 3.13953 7.51789 2.25875 7.51789H0.015625C0.169865 4.92237 1.56157 2.65976 3.60908 1.31259H4.87957C5.31977 1.31259 5.71834 1.49087 6.00683 1.77949C6.29368 2.06583 6.47158 2.46123 6.47411 2.89764Z" fill="#82E7A5"/>
<path d="M16.0012 7.99998C16.0012 9.84998 15.3735 11.5535 14.3187 12.9086H13.6156C12.9632 12.9086 12.3732 12.6443 11.9461 12.2172C11.5186 11.7901 11.2544 11.1998 11.2544 10.5478V9.22366C11.2544 9.01906 11.0885 8.85292 10.8837 8.85292H9.68795C9.03594 8.85292 8.44568 8.58898 8.01851 8.16182C7.59147 7.7344 7.32715 7.14401 7.32715 6.492C7.32715 5.18798 8.38431 4.1312 9.68795 4.1312H15.0051C15.1368 4.36882 15.2567 4.61403 15.3638 4.86558V4.86596C15.7743 5.82835 16.0012 6.88778 16.0012 7.99998Z" fill="#82E7A5"/>
<path d="M11.0629 6.39293C11.0629 6.74797 10.7752 7.03583 10.4201 7.03583C10.0652 7.03583 9.77734 6.74797 9.77734 6.39293C9.77734 6.03801 10.0652 5.75015 10.4201 5.75015C10.7752 5.75015 11.0629 6.03801 11.0629 6.39293Z" fill="#FD6096"/>
<path d="M7.11575 10.4477C7.11575 10.8026 6.8279 11.0905 6.47298 11.0905C6.11793 11.0905 5.83008 10.8026 5.83008 10.4477C5.83008 10.0927 6.11793 9.80481 6.47298 9.80481C6.8279 9.80481 7.11575 10.0927 7.11575 10.4477Z" fill="#FD6096"/>
</svg>
