<svg width="28" height="28" viewBox="0 0 28 28" fill="none" xmlns="http://www.w3.org/2000/svg">
<path d="M26.9425 11.5658L15.5215 11.5652C15.0172 11.5652 14.6084 11.974 14.6084 12.4783V16.1268C14.6084 16.631 15.0172 17.0398 15.5215 17.0398H21.953C21.2488 18.8676 19.9343 20.3982 18.2573 21.3708L20.9997 26.1181C25.3988 23.5739 27.9997 19.1098 27.9997 14.1126C27.9997 13.4011 27.9472 12.8924 27.8423 12.3197C27.7626 11.8845 27.3848 11.5658 26.9425 11.5658Z" fill="#167EE6"/>
<path d="M14 22.5217C10.8525 22.5217 8.10478 20.802 6.62904 18.2573L1.88184 20.9935C4.29766 25.1805 8.82326 28 14 28C16.5395 28 18.9357 27.3162 21 26.1247V26.1182L18.2576 21.3707C17.0031 22.0983 15.5515 22.5217 14 22.5217Z" fill="#12B347"/>
<path d="M21 26.1247V26.1181L18.2576 21.3707C17.0032 22.0982 15.5516 22.5217 14 22.5217V28C16.5395 28 18.9359 27.3162 21 26.1247Z" fill="#0F993E"/>
<path d="M5.47827 14C5.47827 12.4486 5.90166 10.9971 6.62905 9.74276L1.88185 7.00653C0.683703 9.06426 0 11.454 0 14C0 16.5461 0.683703 18.9358 1.88185 20.9935L6.62905 18.2573C5.90166 17.0029 5.47827 15.5515 5.47827 14Z" fill="#FFD500"/>
<path d="M14 5.47827C16.0525 5.47827 17.9378 6.20758 19.4103 7.42071C19.7736 7.71996 20.3016 7.69836 20.6344 7.36558L23.2195 4.78051C23.597 4.40294 23.5701 3.78492 23.1668 3.43503C20.6996 1.29462 17.4894 0 14 0C8.82327 0 4.29766 2.81952 1.88184 7.00651L6.62904 9.74274C8.10478 7.19797 10.8525 5.47827 14 5.47827Z" fill="#FF4B26"/>
<path d="M19.4103 7.42071C19.7736 7.71996 20.3017 7.69836 20.6344 7.36558L23.2195 4.78051C23.597 4.40294 23.5701 3.78492 23.1668 3.43503C20.6996 1.29456 17.4894 0 14 0V5.47827C16.0524 5.47827 17.9378 6.20758 19.4103 7.42071Z" fill="#D93F21"/>
</svg>
