<svg width="16" height="16" viewBox="0 0 16 16" fill="none" xmlns="http://www.w3.org/2000/svg">
<path fill-rule="evenodd" clipRule="evenodd" d="M16 8C16 12.4182 12.4182 16 8 16C3.58172 16 0 12.4182 0 8C0 3.58172 3.58172 0 8 0C12.4182 0 16 3.58172 16 8ZM8 7.2C8.44184 7.2 8.8 7.55816 8.8 8V12.0007C8.8 12.4426 8.44184 12.8007 8 12.8007C7.55816 12.8007 7.2 12.4426 7.2 12.0007V8C7.2 7.55816 7.55816 7.2 8 7.2ZM8 5.6C8.44184 5.6 8.8 5.24182 8.8 4.8C8.8 4.35818 8.44184 4 8 4C7.55816 4 7.2 4.35818 7.2 4.8C7.2 5.24182 7.55816 5.6 8 5.6Z" fill="#9298B4"/>
</svg>
