<svg width="36" height="36" viewBox="0 0 36 36" fill="none" xmlns="http://www.w3.org/2000/svg">
<rect width="36" height="36" rx="10" fill="#673CFF"/>
<path d="M10.0215 18.4605L12.7799 20.475L11.7323 23.7192C11.563 24.2223 11.5609 24.7667 11.7262 25.2712C11.8915 25.7757 12.2154 26.2132 12.6497 26.5186C13.0765 26.8338 13.5937 27.0026 14.1243 27C14.6549 26.9973 15.1704 26.8233 15.594 26.5039L18.2911 24.5188L20.989 26.5016C21.4151 26.8149 21.9295 26.9851 22.4584 26.9877C22.9872 26.9903 23.5033 26.8251 23.9324 26.5159C24.3615 26.2067 24.6814 25.7694 24.8463 25.2669C25.0112 24.7643 25.0124 24.2225 24.8499 23.7192L23.8024 20.475L26.5607 18.4605C26.9862 18.1494 27.3025 17.7118 27.4644 17.2103C27.6264 16.7087 27.6256 16.1687 27.4624 15.6676C27.2991 15.1665 26.9816 14.7297 26.5553 14.4198C26.129 14.1098 25.6157 13.9425 25.0886 13.9418H21.7003L20.6721 10.7371C20.5105 10.2327 20.1927 9.79266 19.7648 9.48045C19.3369 9.16824 18.8208 9 18.2911 9C17.7614 9 17.2454 9.16824 16.8175 9.48045C16.3895 9.79266 16.0718 10.2327 15.9101 10.7371L14.8819 13.9418H11.4968C10.9697 13.9425 10.4563 14.1098 10.03 14.4198C9.60371 14.7297 9.28625 15.1665 9.12298 15.6676C8.95971 16.1687 8.95899 16.7087 9.12092 17.2103C9.28284 17.7118 9.59914 18.1494 10.0246 18.4605H10.0215Z" fill="white"/>
</svg>
