<svg width="20" height="21" viewBox="0 0 20 21" fill="none" xmlns="http://www.w3.org/2000/svg">
<path d="M1.00123 10.1965C1.26677 10.1965 1.52144 10.091 1.70921 9.90328C1.89697 9.71551 2.00246 9.46084 2.00246 9.1953V8.2221C2.00325 7.68383 2.21744 7.16782 2.59806 6.7872C2.97868 6.40658 3.49468 6.1924 4.03296 6.19161H13.0197C13.2852 6.19161 13.5399 6.08612 13.7277 5.89835C13.9154 5.71059 14.0209 5.45592 14.0209 5.19038C14.0209 4.92484 13.9154 4.67017 13.7277 4.4824C13.5399 4.29463 13.2852 4.18915 13.0197 4.18915H4.03296C2.96376 4.19047 1.93873 4.6158 1.18269 5.37184C0.42665 6.12788 0.00132474 7.1529 0 8.2221V9.1953C0 9.46084 0.105487 9.71551 0.293254 9.90328C0.481021 10.091 0.735687 10.1965 1.00123 10.1965Z" fill="#9298B4"/>
<path d="M16.6105 5.19038L13.3135 8.48743C13.2178 8.57979 13.1416 8.69027 13.0891 8.81243C13.0366 8.93458 13.009 9.06596 13.0079 9.19891C13.0067 9.33185 13.032 9.46369 13.0824 9.58674C13.1327 9.70978 13.2071 9.82157 13.3011 9.91558C13.3951 10.0096 13.5069 10.0839 13.6299 10.1343C13.753 10.1846 13.8848 10.21 14.0177 10.2088C14.1507 10.2076 14.2821 10.18 14.4042 10.1275C14.5264 10.0751 14.6369 9.9988 14.7292 9.90317L18.7341 5.89825C18.9218 5.71049 19.0273 5.45587 19.0273 5.19038C19.0273 4.92489 18.9218 4.67027 18.7341 4.48251L14.7292 0.477591C14.5404 0.295209 14.2875 0.19429 14.025 0.196571C13.7624 0.198852 13.5113 0.304151 13.3257 0.489787C13.14 0.675423 13.0347 0.926544 13.0325 1.18906C13.0302 1.45158 13.1311 1.7045 13.3135 1.89333L16.6105 5.19038Z" fill="#9298B4"/>
<path d="M3.41676 15.2027L6.71381 11.9057C6.89619 11.7168 6.99711 11.4639 6.99483 11.2014C6.99255 10.9389 6.88725 10.6878 6.70161 10.5021C6.51597 10.3165 6.26485 10.2112 6.00233 10.2089C5.73981 10.2066 5.4869 10.3075 5.29807 10.4899L1.29315 14.4948C1.10545 14.6826 1 14.9372 1 15.2027C1 15.4682 1.10545 15.7228 1.29315 15.9106L5.29807 19.9155C5.4869 20.0979 5.73981 20.1988 6.00233 20.1965C6.26485 20.1942 6.51597 20.0889 6.70161 19.9033C6.88725 19.7177 6.99255 19.4665 6.99483 19.204C6.99711 18.9415 6.89619 18.6886 6.71381 18.4998L3.41676 15.2027Z" fill="#9298B4"/>
<path d="M18.0255 10.1965C17.76 10.1965 17.5053 10.302 17.3176 10.4898C17.1298 10.6776 17.0243 10.9322 17.0243 11.1978V12.171C17.0235 12.7092 16.8093 13.2252 16.4287 13.6059C16.0481 13.9865 15.5321 14.2007 14.9938 14.2015H7.00709C6.74155 14.2015 6.48688 14.3069 6.29911 14.4947C6.11135 14.6825 6.00586 14.9371 6.00586 15.2027C6.00586 15.4682 6.11135 15.7229 6.29911 15.9107C6.48688 16.0984 6.74155 16.2039 7.00709 16.2039H14.9938C16.063 16.2026 17.088 15.7773 17.8441 15.0212C18.6001 14.2652 19.0254 13.2402 19.0268 12.171V11.1978C19.0268 10.9322 18.9213 10.6776 18.7335 10.4898C18.5458 10.302 18.2911 10.1965 18.0255 10.1965Z" fill="#9298B4"/>
</svg>
