<svg width="36" height="36" viewBox="0 0 36 36" fill="none" xmlns="http://www.w3.org/2000/svg">
<circle cx="18" cy="18" r="18" fill="#9298B4"/>
<path d="M25.9532 10.3543C25.9104 10.2499 25.8376 10.1606 25.744 10.0976C25.6505 10.0345 25.5403 10.0006 25.4275 10H22.5704C22.4952 9.99957 22.4206 10.014 22.351 10.0424C22.2814 10.0709 22.2181 10.1128 22.1647 10.1657L18.4047 13.9314C18.3515 13.985 18.2883 14.0275 18.2187 14.0565C18.1491 14.0855 18.0744 14.1005 17.999 14.1005C17.9235 14.1005 17.8488 14.0855 17.7792 14.0565C17.7096 14.0275 17.6464 13.985 17.5932 13.9314L13.8332 10.1657C13.7799 10.1128 13.7165 10.0709 13.6469 10.0424C13.5773 10.014 13.5027 9.99957 13.4275 10H10.5704C10.4576 10.0006 10.3475 10.0345 10.2539 10.0976C10.1603 10.1606 10.0875 10.2499 10.0447 10.3543C10.0009 10.4584 9.98896 10.5731 10.0103 10.6839C10.0317 10.7948 10.0854 10.8968 10.1647 10.9772L15.9761 16.7886C16.2415 17.0546 16.5568 17.2658 16.9039 17.4098C17.251 17.5538 17.6231 17.628 17.999 17.628C18.3748 17.628 18.7469 17.5538 19.094 17.4098C19.4411 17.2658 19.7564 17.0546 20.0218 16.7886L25.8332 10.9772C25.9125 10.8968 25.9662 10.7948 25.9876 10.6839C26.0089 10.5731 25.997 10.4584 25.9532 10.3543Z" fill="#EBEBF2"/>
<path d="M25.8332 25.0228L20.0218 19.2114C19.7564 18.9453 19.4411 18.7342 19.094 18.5902C18.7469 18.4462 18.3748 18.372 17.999 18.372C17.6231 18.372 17.251 18.4462 16.9039 18.5902C16.5568 18.7342 16.2415 18.9453 15.9761 19.2114L10.1647 25.0228C10.0854 25.1032 10.0317 25.2052 10.0103 25.3161C9.98896 25.4269 10.0009 25.5416 10.0447 25.6457C10.0875 25.75 10.1603 25.8394 10.2539 25.9024C10.3475 25.9655 10.4576 25.9994 10.5704 26H13.4275C13.5027 26.0004 13.5773 25.986 13.6469 25.9575C13.7165 25.9291 13.7799 25.8872 13.8332 25.8343L17.5932 22.0685C17.6464 22.015 17.7096 21.9725 17.7792 21.9435C17.8488 21.9144 17.9235 21.8995 17.999 21.8995C18.0744 21.8995 18.1491 21.9144 18.2187 21.9435C18.2883 21.9725 18.3515 22.015 18.4047 22.0685L22.1647 25.8343C22.2181 25.8872 22.2814 25.9291 22.351 25.9575C22.4206 25.986 22.4952 26.0004 22.5704 26H25.4275C25.5403 25.9994 25.6505 25.9655 25.744 25.9024C25.8376 25.8394 25.9104 25.75 25.9532 25.6457C25.997 25.5416 26.0089 25.4269 25.9876 25.3161C25.9662 25.2052 25.9125 25.1032 25.8332 25.0228Z" fill="#EBEBF2"/>
</svg>
