<svg width="36" height="36" viewBox="0 0 36 36" fill="none" xmlns="http://www.w3.org/2000/svg">
<path d="M18 36C27.9411 36 36 27.9411 36 18C36 8.05887 27.9411 0 18 0C8.05887 0 0 8.05887 0 18C0 27.9411 8.05887 36 18 36Z" fill="#FAA300"/>
<path d="M24.428 14.1429H21.728C21.5297 13.2073 21.1232 12.3284 20.5387 11.5714H24.428C24.769 11.5714 25.096 11.436 25.3372 11.1949C25.5783 10.9537 25.7137 10.6267 25.7137 10.2857C25.7137 9.94472 25.5783 9.6177 25.3372 9.37658C25.096 9.13546 24.769 9 24.428 9H11.5709C11.2299 9 10.9029 9.13546 10.6617 9.37658C10.4206 9.6177 10.2852 9.94472 10.2852 10.2857C10.2852 10.6267 10.4206 10.9537 10.6617 11.1949C10.9029 11.436 11.2299 11.5714 11.5709 11.5714H15.428C16.2229 11.5747 16.9974 11.8235 17.6455 12.2838C18.2936 12.7441 18.7836 13.3934 19.0486 14.1429H11.5709C11.2299 14.1429 10.9029 14.2783 10.6617 14.5194C10.4206 14.7606 10.2852 15.0876 10.2852 15.4286C10.2852 15.7696 10.4206 16.0966 10.6617 16.3377C10.9029 16.5788 11.2299 16.7143 11.5709 16.7143H19.0486C18.7836 17.4637 18.2936 18.113 17.6455 18.5733C16.9974 19.0336 16.2229 19.2824 15.428 19.2857H11.5709C11.2917 19.2857 11.0201 19.3766 10.7971 19.5446C10.5742 19.7126 10.4119 19.9486 10.335 20.217C10.258 20.4853 10.2705 20.7715 10.3705 21.0321C10.4706 21.2927 10.6527 21.5137 10.8894 21.6617L21.1752 28.0903C21.465 28.271 21.8148 28.3292 22.1475 28.252C22.4803 28.1749 22.7687 27.9687 22.9494 27.6789C23.1302 27.389 23.1884 27.0392 23.1112 26.7065C23.034 26.3738 22.8279 26.0853 22.538 25.9046L16.0117 21.825C17.3866 21.6987 18.6845 21.1338 19.7138 20.2136C20.7431 19.2933 21.4492 18.0665 21.728 16.7143H24.428C24.769 16.7143 25.096 16.5788 25.3372 16.3377C25.5783 16.0966 25.7137 15.7696 25.7137 15.4286C25.7137 15.0876 25.5783 14.7606 25.3372 14.5194C25.096 14.2783 24.769 14.1429 24.428 14.1429Z" fill="black"/>
</svg>
