<svg width="32" height="32" viewBox="0 0 32 32" fill="none" xmlns="http://www.w3.org/2000/svg">
<path d="M7.1037 18.5074C7.30645 19.2025 7.58782 19.8729 7.94367 20.5018L6.92991 21.7804C6.59889 22.1983 6.63613 22.7942 7.00853 23.1707L8.75467 24.9168C9.13121 25.2934 9.72705 25.3264 10.145 24.9954L11.4153 23.9899C12.069 24.3665 12.7642 24.6603 13.4883 24.8671L13.6786 26.5016C13.7407 27.0312 14.1876 27.4284 14.7172 27.4284H17.1875C17.7171 27.4284 18.164 27.0312 18.2261 26.5016L18.4081 24.9251C19.186 24.7223 19.9308 24.4203 20.6301 24.0272L21.859 24.9995C22.277 25.3306 22.8728 25.2933 23.2493 24.9209L24.9955 23.1748C25.372 22.7982 25.4051 22.2024 25.0741 21.7845L24.1183 20.5721C24.5155 19.8852 24.8258 19.1529 25.0327 18.3874L26.5058 18.2177C27.0355 18.1556 27.4326 17.7088 27.4326 17.1791V14.7089C27.4326 14.1792 27.0354 13.7324 26.5058 13.6703L25.0534 13.5006C24.8548 12.7434 24.5569 12.0193 24.1763 11.3407L25.07 10.2111C25.401 9.79318 25.3638 9.19734 24.9914 8.8208L23.2494 7.07879C22.8728 6.70225 22.277 6.66915 21.8591 7.00017L20.7626 7.86911C20.0509 7.45119 19.2895 7.13258 18.4909 6.91742L18.3254 5.49815C18.2634 4.96852 17.8165 4.57129 17.2868 4.57129H14.8166C14.2869 4.57129 13.8401 4.96852 13.778 5.49815L13.6125 6.91742C12.7932 7.13672 12.0112 7.46774 11.2829 7.90221L10.145 7.00017C9.72709 6.66915 9.13125 6.70639 8.75471 7.07879L7.00857 8.82494C6.63203 9.20147 6.59893 9.79732 6.92995 10.2152L7.88164 11.4193C7.50097 12.1062 7.21132 12.8386 7.02098 13.5999L5.49828 13.7737C4.96864 13.8358 4.57141 14.2827 4.57141 14.8123V17.2826C4.57141 17.8122 4.96864 18.2591 5.49828 18.3212L7.1037 18.5074ZM16.0537 11.8249C18.3047 11.8249 20.1377 13.6579 20.1377 15.9089C20.1377 18.1598 18.3047 19.9929 16.0537 19.9929C13.8028 19.9929 11.9697 18.1598 11.9697 15.9089C11.9697 13.6579 13.8028 11.8249 16.0537 11.8249Z" fill="#9298B4"/>
</svg>
