<svg width="18" height="18" viewBox="0 0 18 18" fill="none" xmlns="http://www.w3.org/2000/svg">
<path d="M13.1104 16.9999C12.8349 16.9999 12.5594 16.909 12.319 16.7269L9.24062 14.3953C9.0967 14.2864 8.90334 14.2864 8.75942 14.3953L5.68105 16.7269C5.20022 17.0911 4.579 17.0911 4.09817 16.7269C3.61746 16.3627 3.42544 15.7467 3.60903 15.1574L4.78481 11.385C4.83987 11.2086 4.78005 11.017 4.63613 10.9079L1.55789 8.57653C1.07705 8.21233 0.885034 7.5963 1.06863 7.00712C1.25234 6.41794 1.75503 6.03719 2.34927 6.03719H6.15432C6.33218 6.03719 6.48867 5.91872 6.5436 5.74235L7.71938 1.96992C7.9031 1.38074 8.40579 1 9.00002 1C9.59426 1 10.0969 1.38074 10.2807 1.96992L11.4564 5.74235C11.5114 5.91872 11.6679 6.03719 11.8457 6.03719H15.6508C16.245 6.03719 16.7477 6.41794 16.9314 7.00712C17.115 7.5963 16.923 8.21233 16.4422 8.57653L13.3639 10.9079C13.22 11.017 13.1602 11.2086 13.2152 11.385L14.391 15.1574C14.5746 15.7467 14.3826 16.3627 13.9019 16.7269C13.6615 16.909 13.3859 16.9999 13.1104 16.9999Z" fill="#F02A83" stroke="#FF5AA4" stroke-width="0.5"/>
</svg>
