<svg width="20" height="20" viewBox="0 0 20 20" fill="none" xmlns="http://www.w3.org/2000/svg">
<circle cx="10" cy="10" r="10" fill="black"/>
<path d="M10 0C4.5 0 0 4.5 0 10C0 15.5 4.5 20 10 20C15.5 20 20 15.5 20 10C20 4.5 15.5 0 10 0ZM10 9C11.7 9 13 10.3 13 12C13 13.3 12.2 14.4 11 14.8V16H9V14.8C7.8 14.4 7 13.3 7 12H9C9 12.5 9.5 13 10 13C10.5 13 11 12.5 11 12C11 11.5 10.5 11 10 11C8.3 11 7 9.7 7 8C7 6.7 7.8 5.6 9 5.2V4H11V5.2C12.2 5.6 13 6.7 13 8H11C11 7.5 10.5 7 10 7C9.5 7 9 7.5 9 8C9 8.5 9.5 9 10 9Z" fill="#06C93D"/>
</svg>
