<svg width="28" height="28" viewBox="0 0 28 28" fill="none" xmlns="http://www.w3.org/2000/svg">
<circle cx="14" cy="14" r="12.8571" fill="#EF9D2A" stroke="#FFB44C" stroke-width="1.71429"/>
<path d="M19.6486 18.6096C19.4236 18.8596 19.1184 19 18.8002 19C18.482 19 18.1768 18.8596 17.9518 18.6096L12.3516 15.0763C12.1265 14.8263 12.0001 14.4872 12 14.1336V6.33346C12 5.9798 12.1264 5.64063 12.3515 5.39056C12.5765 5.14049 12.8818 5 13.2001 5C13.5183 5 13.8236 5.14049 14.0486 5.39056C14.2737 5.64063 14.4001 5.9798 14.4001 6.33346V13.5815L19.6486 16.7241C19.8736 16.9741 20 17.3132 20 17.6668C20 18.0204 19.8736 18.3595 19.6486 18.6096Z" fill="white"/>
</svg>
