<svg width="70" height="70" viewBox="0 0 70 70" fill="none" xmlns="http://www.w3.org/2000/svg">
<path fillRule="evenodd" clipRule="evenodd" d="M39.7348 15.0555V4.90233C39.7348 2.20602 37.5286 0 34.8324 0H30.5471L27.4224 5.41217H12.3124L9.18765 0H4.90233C2.20617 0 0 2.20602 0 4.90233V65.0977C0 67.7938 2.20602 70 4.90233 70H34.8323C37.5286 70 39.7346 67.794 39.7346 65.0977V54.9446C28.7195 54.9446 19.7902 46.0151 19.7902 35C19.7902 23.9849 28.7197 15.0555 39.7348 15.0555ZM21.3166 61.658C22.3234 61.658 23.1395 62.4741 23.1395 63.481C23.1395 64.4878 22.3234 65.3039 21.3166 65.3039H18.4182C17.4113 65.3039 16.5953 64.4878 16.5953 63.481C16.5953 62.4741 17.4113 61.658 18.4182 61.658H21.3166ZM60.1001 24.6709C59.0947 24.6709 58.2794 23.8542 58.2794 22.848C58.2794 19.3349 55.418 16.4762 51.903 16.4762C50.8976 16.4762 50.0822 15.6599 50.0822 14.6533C50.0822 13.6468 50.8977 12.8304 51.903 12.8304C57.4287 12.8304 61.921 17.3237 61.921 22.8479C61.921 23.8541 61.1055 24.6709 60.1001 24.6709ZM67.4889 24.6709C68.4943 24.6709 69.3096 23.8542 69.3096 22.848C69.3096 13.2493 61.4991 5.44133 51.9028 5.44133C50.8974 5.44133 50.0821 6.25625 50.0821 7.26425C50.0821 8.27225 50.8976 9.08717 51.9028 9.08717C59.4955 9.08717 65.668 15.2603 65.668 22.848C65.668 23.8542 66.4835 24.6709 67.4889 24.6709ZM26.3374 0L24.886 2.51373H14.8489L13.3976 0H26.3374Z" fill="#9298B4"/>
<circle cx="41" cy="35" r="18" fill="#32B74A"/>
<path d="M47.428 31.1429H44.728C44.5297 30.2073 44.1232 29.3284 43.5387 28.5714H47.428C47.769 28.5714 48.096 28.436 48.3372 28.1949C48.5783 27.9537 48.7137 27.6267 48.7137 27.2857C48.7137 26.9447 48.5783 26.6177 48.3372 26.3766C48.096 26.1355 47.769 26 47.428 26H34.5709C34.2299 26 33.9029 26.1355 33.6617 26.3766C33.4206 26.6177 33.2852 26.9447 33.2852 27.2857C33.2852 27.6267 33.4206 27.9537 33.6617 28.1949C33.9029 28.436 34.2299 28.5714 34.5709 28.5714H38.428C39.2229 28.5747 39.9974 28.8235 40.6455 29.2838C41.2936 29.7441 41.7836 30.3934 42.0486 31.1429H34.5709C34.2299 31.1429 33.9029 31.2783 33.6617 31.5194C33.4206 31.7606 33.2852 32.0876 33.2852 32.4286C33.2852 32.7696 33.4206 33.0966 33.6617 33.3377C33.9029 33.5788 34.2299 33.7143 34.5709 33.7143H42.0486C41.7836 34.4637 41.2936 35.113 40.6455 35.5733C39.9974 36.0336 39.2229 36.2824 38.428 36.2857H34.5709C34.2917 36.2857 34.0201 36.3766 33.7971 36.5446C33.5742 36.7126 33.4119 36.9486 33.335 37.217C33.258 37.4853 33.2705 37.7715 33.3705 38.0321C33.4706 38.2927 33.6527 38.5137 33.8894 38.6617L44.1752 45.0903C44.465 45.271 44.8148 45.3292 45.1475 45.252C45.4803 45.1749 45.7687 44.9687 45.9494 44.6789C46.1302 44.389 46.1884 44.0392 46.1112 43.7065C46.034 43.3738 45.8279 43.0853 45.538 42.9046L39.0117 38.825C40.3866 38.6987 41.6845 38.1338 42.7138 37.2136C43.7431 36.2933 44.4492 35.0665 44.728 33.7143H47.428C47.769 33.7143 48.096 33.5788 48.3372 33.3377C48.5783 33.0966 48.7137 32.7696 48.7137 32.4286C48.7137 32.0876 48.5783 31.7606 48.3372 31.5194C48.096 31.2783 47.769 31.1429 47.428 31.1429Z" fill="white"/>
</svg>
