<svg width="32" height="32" viewBox="0 0 32 32" fill="none" xmlns="http://www.w3.org/2000/svg">
<path d="M7.87046 24.0227C7.8857 24.0418 7.90093 24.0608 7.91998 24.0799C7.93522 24.0951 7.95427 24.1103 7.97332 24.1218C7.97332 24.1218 7.97713 24.1294 7.98093 24.1294C10.0305 26.1522 12.8305 27.4056 15.9238 27.4208C15.9352 27.4246 15.9466 27.4246 15.9619 27.4246C15.9733 27.4284 15.9886 27.4284 16 27.4284C16.0114 27.4284 16.0266 27.4284 16.0381 27.4246C16.0533 27.4246 16.0647 27.4246 16.0762 27.4208C19.1847 27.4056 22 26.137 24.0495 24.1027C24.0609 24.0951 24.0686 24.0875 24.0762 24.0799C24.0952 24.0608 24.1105 24.0418 24.1257 24.0227C26.1714 21.958 27.4286 19.1237 27.4286 15.9999V15.9961C27.4286 12.8722 26.1676 10.038 24.1257 7.977C24.1105 7.95796 24.0952 7.93891 24.0762 7.92367C24.0724 7.91605 24.0647 7.90843 24.0571 7.90462C24.0571 7.90208 24.0559 7.90081 24.0533 7.90081C21.9886 5.84367 19.139 4.57129 16 4.57129C12.8609 4.57129 10.0457 5.82843 7.98093 7.86653C7.98093 7.86653 7.98093 7.87034 7.97713 7.87034C7.95808 7.88557 7.93903 7.90081 7.91998 7.91986C7.90093 7.93891 7.8857 7.95796 7.87046 7.977C7.87046 7.98081 7.86665 7.98081 7.86665 7.98081C5.82855 10.0418 4.57141 12.8761 4.57141 15.9961V15.9999C4.57141 19.1237 5.82855 21.9541 7.86665 24.0189C7.86665 24.0189 7.87046 24.0189 7.87046 24.0227ZM16.3809 26.6513V24.0227C18.259 23.9389 20.019 23.2113 21.4057 21.9503L23.2609 23.8018C21.4438 25.497 19.0324 26.5637 16.3809 26.6513ZM23.8019 8.7351C25.4971 10.5522 26.5638 12.9637 26.6552 15.6151H24.019C23.9352 13.737 23.2076 11.977 21.9466 10.5903L23.8019 8.7351ZM15.619 5.34081V7.97319C13.7447 8.06081 11.9847 8.78843 10.5905 10.0532L8.73522 8.19796C10.5524 6.50272 12.9638 5.43224 15.619 5.34081ZM10.8533 10.857C12.2247 9.49319 14.0381 8.73891 15.9619 8.72748H15.9695C15.9809 8.73129 15.9886 8.73129 16 8.73129C16.0114 8.73129 16.019 8.73129 16.0305 8.72748H16.0381C17.9581 8.73891 19.7638 9.48558 21.1238 10.838L21.1276 10.8418C21.1314 10.8456 21.139 10.8532 21.1428 10.857C21.1467 10.8608 21.1543 10.8684 21.1543 10.8722C22.5181 12.2399 23.2686 14.0608 23.2686 15.9961C23.2686 17.9313 22.5143 19.7675 21.1428 21.1427L21.139 21.1465C19.7752 22.5065 17.9657 23.2608 16.0381 23.2722H16.0305C16.019 23.2684 16.0114 23.2684 16 23.2684C15.9886 23.2684 15.9809 23.2684 15.9695 23.2722H15.9619C14.0381 23.2608 12.2247 22.5065 10.8533 21.1427C9.48189 19.7675 8.7276 17.9389 8.7276 15.9961C8.7276 14.0532 9.48189 12.2284 10.8533 10.857ZM7.97713 16.377C8.06093 18.2551 8.78855 20.0151 10.0533 21.4094L8.19808 23.2646C6.50284 21.4475 5.43236 19.0361 5.34474 16.377H7.97713Z" fill="#9298B4"/>
<path d="M14.2859 19.173C14.6212 19.173 14.9564 19.1159 15.2726 18.9978L14.6364 20.7349C14.5945 20.853 14.6097 20.9825 14.6821 21.0854C14.7545 21.1844 14.8688 21.2454 14.9945 21.2454H16.9983C17.124 21.2454 17.2421 21.1844 17.3107 21.0854C17.3831 20.9825 17.3983 20.853 17.3564 20.7349L16.7202 18.9978C17.7335 19.3711 18.9183 19.1501 19.7221 18.3425C20.8154 17.253 20.8307 15.4625 19.7526 14.3501L16.2669 10.8644C16.1221 10.7197 15.8707 10.7197 15.7259 10.8644L12.244 14.3501C12.2415 14.3501 12.2389 14.3514 12.2364 14.354C11.7221 14.8873 11.4364 15.592 11.4364 16.3311C11.4402 17.093 11.7335 17.8092 12.2707 18.3425C12.8231 18.8949 13.5545 19.173 14.2859 19.173Z" fill="#9298B4"/>
</svg>
