<svg width="32" height="32" viewBox="0 0 32 32" fill="none" xmlns="http://www.w3.org/2000/svg">
<path d="M24.4853 7.51473C22.2188 5.24823 19.2053 4 16 4C12.7947 4 9.78123 5.24823 7.51469 7.51473C5.24819 9.78123 4 12.7947 4 16C4 19.2054 5.24819 22.2188 7.51469 24.4853C9.78119 26.7518 12.7947 28 16 28C19.2053 28 22.2188 26.7518 24.4853 24.4853C26.7518 22.2188 28 19.2054 28 16C28 12.7947 26.7518 9.78123 24.4853 7.51473ZM16.7031 8.07386L19.5377 6.01441C21.6576 6.76773 23.4686 8.17783 24.7252 9.99902L23.6991 13.1568L20.083 14.3318L16.7031 11.8763V8.07386ZM12.4623 6.01445L15.2969 8.07386V11.8764L11.9174 14.3315L8.30111 13.1566L7.27497 9.99883C8.53145 8.17773 10.3425 6.76773 12.4623 6.01445ZM7.81516 22.7183C6.36573 20.9557 5.47333 18.7187 5.40995 16.2788L7.86658 14.494L11.4827 15.6689L12.7736 19.6422L10.5387 22.7183H7.81516ZM19.5298 25.9883C18.4251 26.3799 17.2372 26.5938 16 26.5938C14.7629 26.5938 13.5749 26.3799 12.4703 25.9884L11.6763 23.5449L13.9112 20.4689L18.0888 20.4687L20.3238 23.5448L19.5298 25.9883ZM24.1849 22.7182H21.4614L19.2265 19.6421L20.5175 15.6692L24.1337 14.4942L26.59 16.279C26.5267 18.7187 25.6343 20.9557 24.1849 22.7182Z" fill="#9298B4"/>
</svg>
