<svg width="20" height="20" viewBox="0 0 20 20" fill="none" xmlns="http://www.w3.org/2000/svg">
<path d="M8.04937 16.0928C9.837 16.0928 11.5735 15.4963 12.9838 14.3977L18.3044 19.7191C18.7019 20.103 19.3353 20.092 19.7191 19.6945C20.0936 19.3067 20.0936 18.6919 19.7191 18.3042L14.3985 12.9828C17.1242 9.47344 16.4895 4.41858 12.9807 1.69241C9.47195 -1.03376 4.41791 -0.398932 1.69215 3.11039C-1.03361 6.61971 -0.398871 11.6746 3.10991 14.4007C4.52252 15.4983 6.26057 16.0937 8.04937 16.0928ZM3.77429 3.77179C6.13538 1.4103 9.96346 1.41025 12.3246 3.7717C14.6857 6.13315 14.6858 9.96181 12.3247 12.3233C9.96359 14.6848 6.13551 14.6848 3.77438 12.3234C3.77433 12.3234 3.77433 12.3234 3.77429 12.3233C1.4132 9.97906 1.39929 6.16436 3.74317 3.80291C3.75353 3.79251 3.76389 3.78215 3.77429 3.77179Z" fill="#9298B4"/>
</svg>
